<?xml version="1.0" encoding="UTF-8"?><svg id="Layer_1" xmlns="http://www.w3.org/2000/svg" viewBox="0 0 1920 1080"><defs><style>.cls-1{fill:#2b2505;}.cls-2{fill:#f6d31f;}.cls-3{fill:#edbf4f;}.cls-4{fill:#c3a718;}.cls-5{fill:#efc45c;}.cls-6{fill:#f0c75a;}.cls-7{fill:#f7d51f;}.cls-8{fill:#d8ac89;}.cls-9{fill:#f0c34e;}.cls-10{fill:#010100;}.cls-11{fill:#edbe58;}.cls-12{fill:#f2cd68;}.cls-13{fill:#d3a481;}.cls-14{fill:#f7d223;}.cls-15{fill:#f0c555;}.cls-16{fill:#700b0a;}.cls-17{fill:#7d5d49;}.cls-18{fill:#edbf59;}.cls-19{fill:#cc9360;}.cls-20{fill:#424242;}.cls-21{fill:#676767;}.cls-22{fill:#a71729;}.cls-23{fill:#d29c6c;}.cls-24{fill:#f7d224;}.cls-25{fill:#f7d225;}.cls-26{fill:#f7d322;}.cls-27{fill:#f7d327;}.cls-28{fill:#c2185b;}.cls-29{fill:#e09622;}.cls-30{fill:#f52d13;}.cls-31{fill:#801e08;}.cls-32{fill:#e6b97a;}.cls-33{fill:#f8d51f;}.cls-34{fill:#ec5460;}.cls-35{fill:#dca664;}.cls-36{fill:#f2cd6b;}.cls-37{fill:#f8d61f;}.cls-38{fill:#f7d41f;}.cls-39{fill:#f5d31f;}.cls-40{fill:#fefefe;}</style></defs><polygon class="cls-28" points="84 0 84 0 84 0 1920 1032 1920 0 84 0"/><polygon class="cls-20" points="1922.73 1081.23 4.07 -.74 26.22 -39.91 1920.75 1028.43 1922.73 1081.23"/><g><path d="M2225.66,727.29c-19.09-10.29-39.28-17.98-59.87-24.57-45.94-14.72-92.54-26.62-140.7-31.34-13.79-1.35-27.63-2.23-41.45-3.31-9.1-.71-18.19-1.39-27.29-2.09-.66-.05-1.41,.09-1.35-1.02,.15-2.64,3.15-4.93,5.68-4.25,1.12,.3,2.2,.7,3.32,1,9.8,2.61,10,2.4,8.23-7.65-.14-.78-.68-1.63,.88-2.04,5.08-1.35,6.16-3.06,4.36-7.86-.99-2.64-.09-2.84,2.04-3.37,3.81-.94,5.05-3.63,3.69-7.3-.67-1.8-1.47-3.56-2.22-5.36,1.2-.81,2.52-.38,3.73-.63,4.16-.85,4.67-2.27,2.41-5.76-3.18-4.91-8.16-7.75-12.5-11.32-4.56-3.75-4.63-3.67-2.71-9.41,1.6-4.79-.3-7.53-5.35-7.23-7.61,.45-15.23,.59-22.84,1.21-15.48,1.26-30.63,4-45.29,9.17-9.08,3.21-17.92,7.04-26.51,12.45,.57-7.62,.89-14.76,1.66-21.85,2.14-19.75,7.03-38.98,11.48-58.27,3.37-14.61,5.83-29.21,3.6-44.23-.28-1.89,.46-3.31,1.46-4.78,7.03-10.32,12.66-21.4,17.27-32.98,7.68-19.26,13.37-39.12,17.8-59.37,5.77-26.39,10.3-52.97,12.72-79.88,1.91-21.33,2.72-42.72,2.19-64.13-.37-14.9-1.81-29.72-5.37-44.24-1.36-5.55-2.68-11.19-6.41-15.81h-2.09c-4.41,5.56-9.07,10.92-13.12,16.78-15.4,22.24-25.65,46.98-34.68,72.24-9.83,27.48-17.21,55.66-22.29,84.41-2.27,12.83-4.18,25.72-5.11,38.75-.59,8.28-.51,16.53-.4,25.41-1.06-.91-1.73-1.47-2.4-2.04-10.62-9.11-21.93-17.21-34.11-24.14-26.97-15.36-56.01-23.85-86.84-26.43-19.54-1.63-38.98-1.1-58.18,3.35-1.65,.38-2.93,.2-4.22-1.29-3.92-4.55-7.95-9.02-12.18-13.29-17.38-17.56-36.89-32.55-57.78-45.55-23.12-14.38-46.81-27.88-71.64-39.19-33.51-15.27-68.11-27.15-104.59-32.95-5.03-.8-10.14-2.27-15.36-1.11v2.78c1.1-.03,1.09,1.01,1.48,1.61,15.19,23.77,33.24,45.15,53.45,64.81,30.19,29.37,63.79,54.12,100.47,74.75,18.92,10.64,38.51,19.65,60.07,23.6,2.21,.41,1.38,1.21,.54,2.19-5.43,6.33-9.8,13.3-13.32,20.88-5.66,12.19-13.4,23.45-17.54,36.28-5.92,18.33-14.57,35.07-26.5,50.13-7.3,9.21-10.09,19.83-10.18,31.32-.11,14.84,3.11,29.07,7.9,43.05,4.11,12,8.92,23.67,14.68,34.96,1.28,2.51,2.5,5.06,3.93,7.97-1.55-.11-2.58-.15-3.6-.26-12.83-1.38-25.6-1.2-38.25,1.6-14.95,3.31-28.44,9.35-38.92,20.98-11.75,13.04-17.48,28.35-13.87,45.61,5.82,27.83,23.11,45.98,50.22,54.53,3.16,1,3.76,1.7,2.63,4.95-17.29,49.64-34.47,99.32-51.55,149.03-6.19,18-6.39,35.91,2.02,53.39,4.1,8.51,10.23,15.41,18.21,21.18-13.19,3.98-24.95,10.04-36.8,15.85-6.11,2.99-11.49,7.15-16.88,11.34-3.99,3.1,.25,7.04-2.05,10.02-.2,.26,.41,1.25,.76,1.83,1.59,2.59,4.21,2.93,6.91,3.1,1.25,.08,2.64-.44,3.73,.39,2.84,2.17,6.28,1.83,9.29,1.56,14.59-1.3,29.21-2.61,43.7-4.72,17.22-2.5,34.34-5.76,51.49-8.8,7.25-1.29,11.67-5.94,13.04-13.55,.27-1.53,1.21-1.54,2.17-1.63,3.33-.3,6.68-.44,10.01-.74,12.43-1.09,24.84-2.33,37.28-3.26,5.29-.4,10.63-1.76,15.89-.83,17.81,3.15,35.57,6.58,53.34,9.95,22.65,4.29,45.27,5.76,68.18,8.47,1.62,.19,2.1,.47,2.01,2.22-.32,6.22,2.31,9.59,8.48,11.06,4.14,.99,8.31,1.88,12.49,2.72,23.13,4.6,46.28,9.04,68.73,16.5,8.5,2.82,17.05,5.7,26.08,6.57,1.2,.42,2.39,.45,3.59-.02,2.29,.15,3.8-1.81,6.08-2.08,5.67-.67,6.52-2.11,5.54-7.86-.06-.33-.1-.72,.02-1.01,1.34-3.2-.65-5.29-2.52-7.33-3.78-4.12-8.32-7.35-12.9-10.48-15.59-10.64-31.89-19.98-49.6-26.63,.14-1.09,.98-1.39,1.55-1.93,6.17-5.93,10.92-12.76,13.52-21.02,4.17-13.22,3.15-23.46,.4-36.74-1.51-7.27-3.47-14.42-5.73-22.04,5.04,1.44,9.56,2.71,14.06,4.03,8.94,2.63,17.86,5.31,26.8,7.93,3.67,1.07,4.45,.48,4.71-3.45,.11-1.62,.01-3.25,.14-4.86,1.37-17.51,2.8-35.02,4.09-52.54,.15-2.03,.36-2.53,2.53-1.84,9.09,2.89,18.29,5.43,27.37,8.36,2.97,.96,4.65,.36,6.19-2.32,14.61-25.26,29.34-50.45,43.94-75.72,1.41-2.44,2.7-2.79,5.41-1.98,46.99,13.93,94.02,27.72,141.02,41.58,2.62,.77,4.45,.39,6.43-1.73,14.06-15.05,28.01-30.22,42.5-44.85,20.05-20.25,40.54-40.06,60.84-60.06,.82-.81,1.71-1.56,1.98-2.75-.28-3.25-3.28-3.63-5.34-4.74Zm-317.16,44.86c-3.3,16.02-6.75,32.01-9.83,48.08-.53,2.75-1.75,2.44-3.46,2.13-13.03-2.42-26.05-4.88-39.08-7.32-1.02-.19-2.06-.26-3.07-.47-6.84-1.45-6.7-1.41-5.83,5.39,1.46,11.44,2.61,22.93,3.9,34.4,1.35,12.05,2.7,24.1,4.03,36.15,.12,1.12,.11,2.26,.18,3.67-7.87-2.47-15.43-4.84-22.99-7.23-1.3-.41-1.91-1.21-2.26-2.67-4.27-17.43-5.44-35.1-4.32-52.96,.77-12.34,1.73-24.66,2.36-37.01,.2-3.96,1.21-6.59,4.95-8.86,23.81-14.45,44.88-32.43,65.11-51.47,7.43-6.99,13.94-14.8,20.92-22.19,.55-.58,.97-1.27,1.45-1.91l.71,.35c-4.25,20.63-8.48,41.27-12.74,61.9Z"/><path class="cls-21" d="M1883.03,1059.37c1.2,0,2.39-.01,3.59-.02l-.05,.65h-3.48c.06-.22,.04-.43-.07-.63Z"/><path class="cls-27" d="M1678.62,692.4q-5.51-3.79-2.19-9.83c1.69-3.08,1.25-4.05-2.08-4.18-5.66-.23-10.6-2.35-14.81-5.98-18.78-16.16-40.68-25.54-64.82-30.12-.55-.1-1.08-.36-1.61-.55-1.66-1.26-3.77-1.17-5.57-1.21-2.98-.07-4.38-1.64-5.56-3.9-3.14-6.06-6.03-12.24-9.12-18.32-1.93-3.8-3.1-7.88-4.97-11.7-1.92-3.94-.59-6.68,3.58-7.62,4.94-1.11,8.24-4.13,11.69-7.67,4-4.11,7.06-8.68,9.72-13.6,5.33-9.84,7.34-20.49,7.25-31.6-.07-9.14-1.56-18.01-4.6-26.65-1.24-3.53-3.99-6.21-5.06-9.78-1.69,.02-2.63-1.24-3.79-2.14-1.02-.8-1.62-1.88-3.12-2.41-1.85-.66-1.55-2.86-.75-4.55,1.24-2.61,2.59-5.18,3.87-7.78,4.16-8.41,7.21-17.25,10.41-26.04,4.2-11.54,9.24-22.61,16.19-32.84,2.73-4.02,5.64-7.78,8.61-11.58,1.45-1.85,3.04-3.87,4.24-5.97,.7-1.23,2.13-.92,2.61-2.05,.74,.62,.99,.63,.72-.46-.17-.69,.05-1.69,.79-1.65,1.2,.06,.63,1.19,.72,1.88,.24-1.14-.34-2.45,.6-3.51,.93-1.05,1.27-2.5,2.19-3.53,.57-.64,1.24-1.22,.79-2.03-.39-.68-1.25-.28-1.89-.18-3.63,.52-6.59-.37-8.32-3.9-.04-.07-.16-.09-.18,.03-.07,.34-.15,.67-.39,.94-1.59,.66-2.65-.46-3.77-1.19-22.7-14.78-46.34-28.01-69.48-42.07-3.72-2.26-7.97-3.82-10.9-7.28-.44-.83-1.11-1.44-1.81-2.06-.93-.83-.79-2.14-.16-2.86,.74-.84,1.54-1.79,2.54-2.32,.33-.17,.65,.81,.88,1.33,.77-2.04,.86-2.09,2.68-1.65,.93,.22,.44-.61,.6-.92,.48-.97,.6-2.65,2.07-.75,.66,.85,.54-.05,.66-.29,.5-1.02,.43-3.45,2.27-.81,.39,.56,.35-.14,.47-.3,.59-.8-.02-4.23,2.43-1.08,.21,.27,.31-.82,.55-1.23,.36-.62,.66-2.05,1.5-1.04,.97,1.18,1.03,1.34,1.28-.23,.1-.66,.33-1.52,1.18-1.43,.79,.08,.73,1.05,1.09,1.63,.57-.89,.76-2.9,1.04-2.74,2.04,1.15,2.37-.32,2.92-1.58,2.17,1.95,2.68-1.43,2.77-1.34,2.15,2,1.96-.55,2.66-1.29,.43-.45,.92-.33,1.13,.11,.65,1.34,.8,.92,1.09-.18,.28-1.05,.57-2.72,2-.69,.14,.2,.33,.54,.39,.48,.32-.33,.25-.82,.39-1.24,.22-.63,.27-1.53,1.14-1.5,1,.03,.76,1.18,1.22,1.74,.59-1.04-.05-2.79,1.61-3.11,.79-.16,.66,1.07,1.19,1.48,.64-2.2,.66-2.28,2.49-1.76,.57,.16,.45-.11,.51-.33,.23-.76,.16-1.85,.98-2.11,1.24-.38,1.01,.79,1.24,1.5,.09,.28,.16-.13,.17-.17,.48-1.62,2.33-1.34,3.25-2.35,.73,.92,1.45,1.78,2.68,2.17,2.32,.73,2.91,2.84,3.51,4.85,.24-.12,.44-.24,.65-.41,3.04-1.04,4.83,.23,5.68,3.12,.08,.28-.03,.28,.03,.3q4.82,1.23,5.28,4.98c.24-.79-.36-2.04,.62-2.2,1.08-.17,1.09,.97,.96,1.76-.37,2.14,.94-1.16,.76,.24,1.86-.11,3.55,.07,4.95,1.6,2.47,2.7,5.67,4.62,8.14,7.31,1.07,1.17,2.93,.5,3.84,1.95,1.49,2.38,3.63,3.97,6.23,5.08,1.25,.53,1.87,1.71,1.02,3.15,.67-1.31,1.65-1.55,2.76-.62,1.87,1.58,3.67,3.37,4.18,5.79,.22,1.05,.76,.83,1.2,.96,2.12,.64,3.82,1.44,4.6,3.94,.4,1.27,2.47,2.03,3.71,2.63,2.8,1.34,3.17,3.28,2.92,5.84,.2-.58-.04-1.23,.21-1.8,.1-.23,.29-.35,.82-.44,.24,1.86,1.63,2.62,3.24,3.44,.74,.38,1.53,1.25,2.3,1.9,1.43,1.21,2.29,2.65,.94,4.5-.75,.64-1.5,1.29-2.26,1.93-.34,.12-.9-.65-.8-.22,.29,1.26-.96,2.59,.63,3.85,2.43,1.93,4.74,2.29,7.68,1.27,2.24-.78,4.85-.71,7.1-1.09,6.31-1.07,12.72-1.36,18.93-2.47,7.35-1.32,14.66-.74,21.96-1.45,7.41-.71,14.91,.71,22.3,1.46,4.19,.43,8.4,.91,12.63,1.13,2.32,.12,3.31,1.35,3.14,3.64-.08,1.03-.18,2.06-.16,2.36,.01,1.2,.77,.64,.32,.77-.06,.02-.09-.05-.11-.2-.22-1.59-.12-3.16,.25-5.05,2.33,1.58,.41,3.58,1.03,4.75,.27-4.09,.57-4.62,4.75-4.33,1.63,.11,3.88-.93,5.07,1.41,.73,1.43,1.74-.12,2.69-.03,5.7,.53,10.98,2.54,16.35,4.2,2.8,.87,5.75,1.47,7.92,3.99,.77,.89,2.68,1.17,4.26,1.47,2.99,.57,6.59,1.12,7.52,5.1,.33-.4,.31-1.12,1.24-.91,.55,.13-.3,1.48,1.08,.84,1.93-.88,3.76,.11,4.7,1.82,.8,1.46,2.33,1.96,3.3,1.97,4.96,.03,6.74,3.41,8.33,7.15,.13,.19,.3,.34,.52,.39,0-.03,3.55-1.19,3.55-1.19,1.96,.53,2.85,2.65,4.84,3.22,2.55,.73,2.46,2.64,1.83,4.33,.09-1.41,.5-2.79,2.7-1.55,.81,.46,1.4,1.21,2.07,1.84,1.56,1.47,2.33,3.96,5.13,3.84,.43-.02,1.06,.57,1.32,1.06,1.22,2.28,3.27,3.41,5.51,4.43,2.43,1.11,1.59,3.16,1.16,5.07,.45-.61-.17-1.67,.64-1.92,1.37-.41,.75,1.76,1.41,1.54,1.91-.65,2.26,.25,2.28,1.79,0,.3-.24,.61,.06,.89,0-.34-.11-.7,.06-1.02,.26-.46,.96-.72,1.01-.22,.2,2.22,2.4,1.83,3.49,2.86,1.89,1.79,2.98,3.8,2.09,6.68,.58-1-.13-2.1,.67-2.76,.27-.14,.67-.1,.66,.05-.16,3.04,3.11,2.65,4.41,4.33,1.09,1.41,2.95,2.21,2.89,4.39,0,.02,.12-.22,.22-.3,.66-.54,.99,.2,1.48,.36,2.61,.89,4.19,.09,5.01-2.42,.58-1.8-.66-2.84-1.68-3.88-3.81-3.89-7.65-7.75-11.55-11.55-1.54-1.51-2.14-3.16-2.58-5.35-1.24-6.18-1.25-12.41-.95-18.56,.28-5.81,.44-11.66,1.27-17.5,.87-6.12,2.02-12.24,2.59-18.43,.34-3.72,1.06-7.49,1.84-11.19,1.29-6.1,2.56-12.2,3.66-18.35,.55-3.04,1.81-5.95,2.12-9.06,1.14-2.19,1.38-4.68,1.82-7.01,.57-3.01,2.57-4.81,4.38-6.79,.83-.91,3.26,.03,3.07-2.42,0-.06,.2-.13,.29-.13,1.56,.08,1.41,2.72,1.73,2.32,1.32-1.64,1.88-1.07,2.2,.42,.67,3.23,.99-.74,1.89-.08,1.04,.76,1.32,2.76,1.46,2.59,2.57-3.14,1.85,.45,2.43,1.16,.16,.2,.21,.3,.45,.31,2.12,.14,2.12,.15,2.63,1.67,.45-.48,.46-1.63,1.26-1.46,1.39,.3,.8,1.97,1.54,2.81,.46-.48,.38-1.62,1.25-1.4,1.4,.35,.86,1.94,1.48,2.84,.78-1.37,1.68-2.65,2.3,0,.4,1.7,.67,1.19,1.23,.15,.11-.21,.38-.26,.59-.23,1.37,.15,.82,2.84,1.7,2.16,2.25-1.74,1.86,.27,2.17,1.2,.4,1.2,.59,.43,.86-.03,.18-.31,.42-.63,.79-.52,1.13,.34,.74,1.64,1.29,2.22,.7,.74,.96-1.88,2.07-.51,.58,.71,.37,1.72,.91,2.44,.6-.55,.64-2.66,2.03-.75,.55,.76,.1,2.88,2.09,.84,.45-.46,.89,1.99,1.4,3.13,.53-.5,.22-1.62,1.08-1.76,1.04-.17,.84,.72,.97,1.37,.25,1.22,.19-.59,.48-.07,.54,.94,1.56-.38,2.39,.63,1.27,1.53,3.08,1.77,4.77,.32,.79-.67,1.44-.16,1.65,.45,.72,2.13,1.93,4.19,1.26,6.61-1.18,4.22-2.23,8.48-3.67,12.61-.69,1.99-.93,4.03-.96,6.11-.89,6.72-3.53,12.93-5.87,19.18-6.07,16.24-12.7,32.27-19.32,48.3-3.26,7.9-7.38,15.44-11.38,23-2.54,4.79-3.17,9.54-1.74,14.71,.44,1.6,1.33,3.32-.01,4.96-1.3,.87-1.11,1.95-.8,3.33,2.18,9.51,3.14,19.15,2.78,28.92-.35,9.33-3.31,18.16-5.14,27.2-3.46,17.1-8.3,33.91-10.38,51.29-.37,3.1-.66,6.21-.98,9.31-.1,.96-.11,1.85-1.58,1.44-14.1-3.99-24.73,2.72-34.32,11.66-10.8,10.07-18.47,22.24-21.44,36.87-1.71,8.43-.85,16.59,5.24,23.49,2.61,2.95,6.05,4.48,9.74,6.17-16.75,11.65-34.51,20.44-53.74,26.23-.57,.05-1.14,.13-1.7,.27-1.78,.44-2.62,1.71-2.19,3.33,.37,1.39,2.65,2.79,3.01,2.51,1.24-.98,2.14,.63,3.18-.05,3.65-2.38,8.04-2.14,12.08-3.1,2.29-.55,4.37-2.66,7.09-1.25,1.36,.71,1.24-1.46,1.39-1.35,1.69,1.33,1.67-.98,2.69-1.2,4.4-.96,7.43-4.89,12.2-5.52,1.76-.23,3.66-2.24,5.4-3.54,4.49-3.34,9.66-5.62,14.03-9,2.3-1.78,5.19-2.6,7.1-4.85,.32-.38,.69-.41,1.19-.38,.4,.03,2.07-1.94,2.19-2.32,.85,.11,1.05,.78,1.27,1.45,.22,.66,.07,2.69,1.19,.35,.11-.23,.36-.25,.6-.22,1.36,.17,.97,2.82,1.67,2.18,2.28-2.08,1.87,.33,2.2,1.13,.48,1.15,.64,.38,.93-.04,.44-.64,.91-.59,1.36-.02,.55,.68,.28,3.04,2.17,.98,.22-.24,.86,.64,.95,1.2,.23,1.48,.44,1.53,1.45,.32,.61-.72,1.24,.36,1.29,.97,.29,3.19,1.25-.07,1.89,.2,1.26,.55,.63,2.42,1.53,2.64,2.23,.56,2.27,.39,2.64,1.83,.56-.51,.45-1.94,1.43-1.62,1.22,.4,.94,1.94,1.4,3.05,.6-1.2,1.03-2.99,2.23-.58,.4,.79,.24,2.42,1.49,.43,.38-.6,.97,.16,1.21,.68,.35,.74,.33,1.58,.59,2.36,.51-.54,.25-1.74,1.29-1.74,.86,0,.99,.88,1.11,1.53,.28,1.51,.64,.98,1.1,.1,.12-.23,.35-.31,.58-.28,1.41,.16,1.21,2.73,1.68,2.23,2.09-2.25,2.01,.08,2.22,.97,.52,2.1,.68,.31,1-.03,.74-.79,1.17-.3,1.52,.4,.36,.73,.32,1.57,.63,2.32,.53-.54,.34-1.95,1.4-1.66,1.17,.32,.94,1.7,1.26,2.67,.75-.28,1.16-2.77,2.38-.37,.19,.38-.39,3.12,1.48,.64,.7-.93,1.27,.55,1.38,1.22,.29,1.7,.66,1.19,1.23,.15,.21-.38,.77-.31,.85-.05,.42,1.36,1.11,2,2.52,1.21,.29,1.62,2.74,1.43,2.75,3.29-.16,1.78-1.62,2.47-2.86,3.25-15.3,9.6-30.11,19.99-45.79,28.99-8.26,4.74-14.88,11.31-20.9,18.6-4.79,5.81-9.8,11.4-12.86,18.44-1.24,2.86-1.52,6.06-3.26,8.72-.11,.72-.86-.71-1.35,.66-1.38,3.89,.11,7.77-.6,11.59-.05,.25,.05-.02,.06-.03,2.01-1.11,.96,1.75,2.09,1.63,1.91-.2,3.39,1.19,5.34,1.14,3.6-.1,5.02,1.33,4.88,5.09-.16,4.36-.44,8.73-.62,13.09-.51,12.12-.14,24.22,.18,36.33,.08,2.85,1.51,5.9-.75,8.57-1.01-.23-1.11-1.05-1.21-1.92-.69,.6-.41,1.51-.77,2.2-.43,.82-.97,1.57-1.66,.35-.86-1.51-.7-.25-.91,.25-.47,1.14-.64,2.97-2.31,.67-.23-.31-.1,2.43-1.78,2.36-.63-.03-.69-.84-1.01-1.3-.24,.62-1.36,1.24-2.74,1.53-.45,.09-.37,.51-.47,.81-.48,1.35-.82,3.34-2.26,.52-1.05,.61-.23,2.41-1.71,2.71-.35,.07-.63-.24-.76-.57-.33-.89-.53-1.57-.85,.04-.21,1.05-.3,2.86-2.1,1.06-.31-.31,.26-.45-.11-.3-1.07,.44-.71,1.75-1.42,2.57-.96,1.1-1.23-3.27-2.04-.12-.21,.84-.48,2.54-1.88,.73-.14-.18-.33-.57-.36-.55-.91,.66-.63,3.43-1.81,2.41-2.04-1.75-1.31,.3-1.65,.79-.41,.57-.86,1.44-1.48,.51-.75-1.12-.82-1.01-1.13,.18-.27,1.03-.52,2.69-2.03,.74-.25-.32,.31-.44-.1-.31-1.2,.38-.37,2.08-1.81,2.67-.86,.36-.91-3.56-1.64-.21-.14,.66-.34,1.52-1.19,1.44-.75-.08-.81-.98-1.06-1.66q-1.12,3.55-2.82,1.74c-.71,1.87-.72,1.89-2.58,1.7-.97-.1-.56,.7-.69,1.05-.75,2.18-1.51,1.45-2.32,.06-.74,.8-.94,3.21-1.57,2.58-2.11-2.13-1.54,.27-1.96,.9-.51,.76-.96,.89-1.58,.11-.13-.16-.06-1.21-.73-.36-.61,.78,0,4.15-2.44,1.08-.27-.34-.37,.8-.55,1.23-.93,2.26-1.59,1.46-2.23-.16-.87,.79-.09,2.71-1.83,2.8-.61,.03-.65-.86-.97-1.32q-.75,2.06-2.64,1.65c-.98-.21-.41,.65-.6,.96-.34,.56-.29,1.52-1.14,1.53-1.06,0-.85-1.12-1.22-1.77-.56,1-.95,3.16-1.15,2.99-2.4-2.1-1.97,.88-2.8,1.44-.55,.37-.79-.03-1.15-.31-.24-.18-.21-1.16-.67-.52-.71,.97-.22,4.17-2.6,1.1-.86,.69-.54,3.48-1.78,2.4-2.08-1.82-1.3,.35-1.64,.79-.43,.56-.85,1.42-1.48,.49-.85-1.25-.87-.71-1.14,.26-.33,1.19-.75,2.53-2.05,.55-.21-.32,.26-.49-.09-.3-1,.53-.6,1.85-1.45,2.67-.88,.85-1.45-3-2.02,.03-.18,.96-.62,2.46-1.9,.6-.13-.19-.21-.8-.56-.28-.63,.94-.09,4.16-2.53,1.18-.84,.71-.21,2.41-1.65,2.63-.58,.09-1.4-2.16-1.79,.29-.16,1-.85,1.84-1.78,.38-.06-.1-.13-.3-.16-.3-1.23,.31-.63,1.76-1.61,2.46-.87,.62-1.37-3.14-1.93,0-.18,1-.72,2.36-1.91,.54-.06-.1-.14-.3-.15-.3-1.13,.45-.69,1.79-1.54,2.58-1.01,.94-1.2-3.32-1.85-.19-.51,2.45-1.8,.41-2.61,.69-.76,.26,.15,3.47-2.24,1.32-.13-.11-.16-.93-.5-.17-.32,.72-.18,1.75-.9,2.19-1.21,.74-1.15-.55-1.56-1.12-.15-.21-.31,0-.37,.32-.15,.79-.13,1.77-.86,2.2-1.22,.73-1.18-.54-1.52-1.16-.85,.73-.5,2.02-1.44,2.79-.97,.8-.81-2.32-1.87-.42-.47,.84-.39,3.41-2.12,.77-.31-.48-.41-.45-.53,.06-.08,.34-.11,.69-.23,1.02-.77,2.09-1.5,1.78-2.19-.04-.76,2.05-.77,2.09-2.69,1.65-.8-.18-.37,.44-.54,.66-.56,.71-.17,3.38-2.17,.99-.21-.24-.39-.15-.59,.31-.48,1.13-.47,3.28-2.35,.84-.31-.4-.33,.74-.56,1.13-.33,.56-.32,1.48-1.27,1.32-.82-.14-.63-1.12-1.09-1.63-.5,.99-.9,3.13-1.17,2.89-2.38-2.08-1.87,.84-2.65,1.38-.48,.33-.9,.27-1.13-.21-.49-1.01-.71-1.31-1.02,.11-.22,1-.48,2.77-1.99,.86-.66-.84-.53-.11-.68,.21-.48,1.01-.28,3.45-2.35,.99-.42-.5-.34,.52-.5,.81-.48,.89-.48,2.84-2.05,.78-.24-.31-.31-.57-.64,0-.5,.86-.02,4.31-2.4,1.01-.24-.33-.31,.62-.47,.96-.44,.96-.53,2.79-2.05,.82-.67-.87-.52-.11-.68,.22-.48,.98-.32,3.57-2.31,.91-.18-.24,.09-.46-.23-.18-.33,.29-.22,.87-.41,1.28-.4,.9-.66,2.4-1.93,.61-.13-.18-.27-.82-.58-.21-.58,1.14-.31,4.15-2.59,1.04-.41,.43-.28,1.04-.5,1.53-.23,.51-.33,1.23-1.06,1.15-.88-.1-.81-.99-1.08-1.55-.17,.54-1.69,1.38-2.81,1.71-.62,.18-.38,.97-.61,1.46-.41,.89-.76,1.9-1.84,.55-.07-.09-.14-.3-.16-.29-1.14,.34-.8,1.64-1.56,2.37-.91,.87-1.29-3.09-1.99-.07-.22,.94-.62,2.45-1.92,.64-.07-.09-.14-.3-.15-.3-1.13,.43-.65,1.8-1.56,2.53-.86,.69-1.36-3.19-1.97,0-.19,1.01-.72,2.32-1.9,.53-.13-.19-.26-.81-.58-.16-.56,1.15-.31,4.18-2.54,.98-.48,.52-.34,1.26-.63,1.85-.43,.84-.96,1.53-1.67,.32-.43-.74-.46-1.7-.88,.02-.19,.78-.02,3.45-2.06,1.09-.74-.86-.56,.07-.65,.29-.47,1.16-.47,3.3-2.39,.9-.3-.37-.35,.56-.48,.88-.45,1.05-.64,2.68-2.08,.69-.29-.4-.37-.29-.61,.11-.5,.84,.03,4.27-2.34,1.03-.18-.25,.11-.5-.2-.2-.32,.3-.23,.88-.39,1.31-.22,.62-.27,1.53-1.2,1.41-.78-.1-.79-1.01-1.09-1.75-.42,1.49-.55,1.52-2.77,1.95-.62,.12-.33,.94-.56,1.4-.41,.83-.71,1.95-1.81,.59-.28-.35-.41-1.32-.8-.03-.34,1.14-.36,3.31-2.34,.97-.33-.39-.37,.53-.5,.84-.43,1.02-.58,2.67-2.05,.75-.16-.21-.32-.47-.39-.39-.3,.37-.28,.87-.44,1.3-.78,2.2-1.51,1.53-2.24-.12-.75,1.31-.02,3.13-1.55,4.07-3,1.15-5.95-.06-8.92-.16-4.62-.14-9.2-.85-13.82-1.05-12.21-.53-23.34-5.46-34.95-8.42-8.62-2.2-16.97-5.4-25.79-6.84-3.88-.63-7.6-.47-11.19,1.2-1.16,.35-2.25,.86-3.24,1.58-1.08,.71-2.26,1.47-2.43,2.81-.37,2.91-2.31,4.77-4.09,6.79-1.11,1.25-1.98,.92-2.77-.23-1.19-1.72-2.03-3.65-2.89-5.53-3.71-8.21-6-16.88-4.95-25.84,.82-7.01,2.35-13.96,4.37-20.85,2.46-8.36,6.94-15.97,8.77-24.42,1.92-8.9,7.07-16.58,8.69-25.56,1.07-5.96,4.56-11.1,6.45-16.81,.98-2.97,1.64-6.03,2.49-9.03,1.46-5.16,4.86-9.58,5.82-14.81,1.33-7.23,5.53-13.44,6.84-20.64,.82-4.48,3.94-8.1,5.01-12.53,1.61-6.64,3.93-13.04,6.34-19.42,1.8-4.76,3.14-6.17,8.16-6.25,6.02-.09,12.08-.37,18.06,.12,3.2,.26,6.61,1.33,9.53,.29,4.65-1.66,9.63,.04,14.13-2.05,.51-.24,1.51-.33,1.96,.25,.78,1.02,.97,.61,1.9-.01,1-.67,.86,.73,.81,1.52,.54-2.43,1.5-4.03,4.42-2.88,1.27,.5,2.28-.41,3.49-1.04,2.31-1.2,4.94-2.93,7.85-1.17,.85-3.85,4.45-2.9,6.91-3.91,.5-.2,1.44,.66,1.53,.53,.51-.71,1.8,.76,1.89-.73,1.07,.61,1.17,.11,1.64-.89,1.18-2.54,3.99-2.5,6.25-2.86,1.83-.29,3.34-.78,4.58-2.1,.42-.45,.85-.88,1.47-.67,1.64,.54,2.38,.16,2.84-1.68,.52-2.05,2.8-.73,4.2-1.53,1.75-1.01,4.04-1.43,3.87,1.13-.88-3.21,.19-4.39,4.31-3.65,.56,.1,1.08,.33,1.68,.32,3.14-.06,5.4,1.24,6.57,5.32,.28-2.16,.65-3.42,1.85-3.97,3.52-1.62,4.65-4.63,4.94-8.15,.22-2.61,1.68-3.96,4.15-3.37,2.74,.65,4.46-1.21,5.66-2.62,1.61-1.9,2.67-4.65,.64-7.26-.36-.46-.59-.99-.59-1.6,2.75-3.57,11.87-5.73,15.61-3.59,5.21,2.98,10.47,2.39,15.76,.4,.67-.25,1.22-.53,1.95-.16,.18,.09,.45,2.22,1.03,.06,.44-1.64,.79,2.25,1.68,.17,.4-.94,.96-1.84,1.65-2.63,.23-.26,.51-.45,.85-.58,1.54-.58,3.43,.66,4.78-1.5,1.12-1.79,3.55-2.45,5.04-4.13,.9-1.01,2.12-2.59,3.54-.37,.1-1.01,1.45-.59,1.42-.77-.21-1.71,.83-2.56,2.05-3.3,2.39-1.43,4.21-3.32,5.07-6.18-.96-.21-1.56,.98-2.46,.53-8.44-1.53-17.04-1.88-25.44-3.52-9.87-1.92-19.81-3.72-28.85-8.52Z"/><path class="cls-27" d="M2221.02,736.89c-5.37,5.57-10.69,11.19-16.12,16.69-20.56,20.83-41.15,41.62-61.72,62.45-6.34,6.42-12.72,12.8-18.9,19.37-2.01,2.14-3.77,2.77-6.18,1.02-5.35-3.87-9.93-8.63-14.93-12.91-13.3-11.39-27.58-21.47-41.8-31.64-20.41-14.58-42.5-26.31-64.37-38.42-14.38-7.97-28.82-15.81-43.13-23.9-4.44-2.51-5.07-2.25-7.1,2.45-4.08,9.46-5.49,19.6-7.62,29.54-4.48,20.94-8.92,41.9-13.38,62.85-2.67,12.57-5.21,25.17-8.04,37.71-1.08,4.75-1.95,5.07-5.92,2.09-13.98-10.49-27.87-21.11-41.87-31.58-1.02-.76-2.11-1.46-2.49-2.79,.05-2.26,2.43-3.16,3.26-2.51,1.73,1.36,3.06,.23,4.54,.25,1.67,.02,3.41-.18,4.23,1.8,1.16-2.85,2.94-.79,4.59-.7,4.26,.22,8.22,2.2,12.62,1.75,4.02-.41,6.22-1.71,7.04-5.5,2.06-9.49,3.74-19.07,5.8-28.56,1.81-8.35,3.48-16.73,5.17-25.1,1.95-9.63,3.85-19.28,5.94-28.87,1.75-8.01,3.14-16.09,4.69-24.13,.63-3.27,1.68-6.48,1.88-9.83,.14-2.34,1.37-4.32,2.84-5.83,3.06-3.15,4.55-7.41,7.71-10.42,1.42-1.35,1.71-3.89,4.34-4.01,.54-.02,.54-.93,.72-1.46,2.45-7.36,8.99-12.11,16.66-12.11,2.78,0,5.56,0,8.34,0,3,0,6.04-.15,7.88,2.95,.35,.6,.19,.1,.3-.12,1.03-2.07,3-1.35,4.63-1.42,5.55-.23,11.05,.1,16.51,1.35,1.96,.45,2.68,1.32,2.51,2.6-.12-1.23,.41-2.41,2.47-2.17,1.96,.24,4.18-.89,5.82,1.07,.8-1.67,2.27,.66,3.2-.56,.94-1.22,1.99-.17,2.81,.16,2.8,1.13,5.58,1.27,8.55,.8,1.38-.22,3.36-.96,4.15,1.31,.03,.08,.15,.11,.37-.26,.24-.39,.54-.73,.79-1.09,1.24-1.8,.45,3.09,2.24,.59,1.25-1.75,2.4,.31,3.65,.86,.67,.29,2.28-.25,3.37-.05,3.22,.61,6.52,.57,9.7,1.07,4.16,.65,8.38,1.08,12.5,2.14,2.98,.77,6.06,1.34,9.1,1.76,3.38,.47,6.68,1.42,10.06,1.91,2.38,.34,4.61,2.3,7.41,1.41,.2-.06,.44,.26,.62,.26,1.08,0,.54,3,2.48,1.33,.43,1.86,1,1.36,1.73,.14,.24-.4,.88-.57,1.26-.38,2.31,1.12,5.11,.5,7.23,1.66,3.44,1.89,6.85,2.84,10.83,2.78,1.53-.02,3.6,.5,5.15,1.39,1.45,.83,2.76,1.64,4.51,1.11,.43-.13,.95-.09,1.34,.19,.59,.42,.8,1.06,1.05,1.73,.25,.68,.35-.11,.44-.19,.57-.49,1.23-.61,1.94-.62,.58,0,1.45-.14,1.68,.21,1.38,2.07,3.55,1.11,5.28,1.66,4.39,1.39,8.98,2.04,13.3,3.71,4.6,1.77,9.38,3.06,14.17,4.29,1.6,.41,3.11,1.32,4.82,1.78,1.8,.49,2.15,2.43,2,4.24,0-.45,.2,.12,.18-.06-.32-2.44,.06-3.66,2.96-2.48,4.95,2,9.78,4.35,14.77,6.18,1.56,.57,3,1.99,4.91,1.7,.63-.1,1.01,.43,1.5,.71,.66,.39,.78,2.65,2.21,.74,1.02,3.04,3.71,.21,4.87,1.28,1.66,1.53,4.42,.59,5.57,2.95,.34,.71,1.45,.59,2.23,.79,3.27,.83,3.43,1.06,3.31,4.7,.2-1.51,.5-2.87,2.52-1.74,1.6,.89,4.87-.6,4.54,3.15,0,.06,1.14,.26,1.53,.15,1.87-.54,2.69-.03,2.42,1.97-.01,.1-.09,.39,.05,.34,1.8-.69,1.79-.7,1.81,2.37Z"/><path class="cls-25" d="M1600.8,974.68c.29-1.94-.85-4.24,1.53-5.78,1.07,.8,.15,2.21,.93,3.17,.74-1.54-.33-3.75,1.95-4.49,.98,.77,.04,2,.9,3.09,.6-1.57-.34-3.68,1.87-4.46,1.07,.68-.05,2.15,.88,2.98,.7-1.44-.37-3.65,1.9-4.39,.99,.77,.05,2,.9,3.1,.6-1.58-.34-3.68,1.88-4.47,1.06,.67-.04,2.14,.88,2.98,.68-1.45-.33-3.63,1.88-4.4,1.01,.78,.07,2.01,.93,3.11,.6-1.58-.34-3.68,1.88-4.46,1.05,.67-.04,2.14,.87,2.97,.71-1.43-.37-3.64,1.9-4.38,1,.75,.06,1.99,.91,3.09,.57-1.59-.27-3.65,1.83-4.5,1.1,.7,.01,2.16,.92,3,.72-1.43-.36-3.64,1.9-4.38,1,.75,.06,1.98,.91,3.09,.57-1.59-.26-3.65,1.84-4.5,1.09,.7,.02,2.16,.91,3,.7-1.44-.34-3.63,1.9-4.39,.96,.77,.1,1.98,.86,3.08,.7-1.59-.32-3.92,2.24-4.49,.1,1.01,.2,2.01,.34,3.45,.95-1.86-.13-4.07,2.13-4.81,1.02,.74,.07,1.97,.91,3.09,.59-1.64-.3-3.91,2.18-4.57l.35,3.49c.95-1.84-.14-4.05,2.12-4.79,1.02,.73,.07,1.97,.91,3.09,.59-1.64-.3-3.91,2.17-4.56,.11,1.06,.21,2.04,.36,3.46,.95-1.82-.14-4.02,2.12-4.76,1.03,.73,.08,1.96,.91,3.09,.59-1.65-.3-3.91,2.17-4.56,.11,1.06,.22,2.04,.37,3.44,.95-1.8-.15-4,2.11-4.74,1.03,.72,.08,1.96,.87,3.04,.69-1.57-.32-3.89,2.21-4.47,.11,1.01,.22,1.99,.41,3.68,.82-2.12-.13-4.26,2.09-5.03,.95,.74,.1,1.96,.76,2.91,.96-1.34-.31-3.8,2.3-4.33,.11,1,.22,1.98,.38,3.35,.95-1.76-.15-3.96,2.1-4.71,1.04,.71,.09,1.95,.77,2.9,.96-1.34-.3-3.8,2.31-4.33,.11,1,.23,1.98,.42,3.64,.82-2.09-.14-4.23,2.05-4.99,1.17,.69-.12,2.2,.97,2.98,.56-1.52-.36-3.67,2.11-4.49,.13,1.07,.24,2.05,.4,3.41,.95-1.73-.16-3.93,2.09-4.68,1.14,.7-.07,2.18,.95,3.02,.58-1.55-.35-3.71,2.13-4.53,.13,1.07,.24,2.04,.44,3.69,.81-2.05-.14-4.19,2.04-4.96,1.15,.69-.07,2.19,.94,3.01,.63-1.52-.4-3.73,2.13-4.49,.13,1.03,.25,2,.45,3.64,.81-2.04-.14-4.17,2.03-4.95,1.18,.68-.11,2.21,.97,2.99,.58-1.5-.36-3.67,1.88-4.42,.92,.85,.01,2.08,.88,3.12,.61-1.56-.33-3.68,1.83-4.46,1.19,.69-.1,2.21,.97,2.99,.58-1.5-.36-3.66,1.89-4.43,.87,.86,.09,2.05,.83,3.22,.65-1.67-.28-3.79,1.87-4.57,1.19,.69-.1,2.21,.96,2.99,.63-1.47-.41-3.68,1.91-4.4,.91,.81,0,2.04,.86,3.09,.61-1.56-.34-3.69,1.84-4.46,1.18,.68-.1,2.21,.95,2.99,.64-1.47-.41-3.68,1.91-4.4,.92,.81,0,2.04,.87,3.09,.6-1.57-.32-3.68,1.82-4.47,1.2,.69-.09,2.22,.96,3,.65-1.47-.4-3.68,1.91-4.41,.93,.8,.01,2.04,.87,3.09,.59-1.57-.31-3.67,1.82-4.47,1.2,.69-.08,2.22,.96,3.01,.61-1.48-.35-3.66,1.87-4.44,.97,.82,.04,2.05,.91,3.12,.59-1.57-.31-3.67,1.82-4.47,1.2,.68-.07,2.21,.96,3,.66-1.46-.39-3.67,1.9-4.41,.95,.79,.02,2.03,.88,3.09,.59-1.58-.3-3.67,1.81-4.47,1.21,.68-.07,2.21,.96,3,.67-1.46-.39-3.67,1.9-4.41,.93,.8,.06,2.01,.87,3.14,.6-1.63-.28-3.71,1.85-4.53,1.12,.71-.03,2.19,.94,3.01,.67-1.45-.38-3.66,1.9-4.4,.97,.78,.03,2.02,.89,3.09,.61-1.57-.34-3.68,1.86-4.46,1.08,.68-.05,2.17,.91,2.99,.64-1.47-.33-3.64,1.87-4.42,1,.8,.06,2.03,.92,3.12,.58-1.58-.29-3.66,1.83-4.49,1.11,.7-.01,2.18,.93,3,.69-1.45-.38-3.65,1.9-4.39,.98,.77,.04,2.01,.9,3.09,.58-1.59-.28-3.66,1.83-4.49,1.11,.7,0,2.18,.93,3,.69-1.44-.37-3.65,1.9-4.39,.98,.77,.05,2,.9,3.09,.58-1.59-.28-3.65,1.83-4.49,1.11,.7,0,2.17,.93,3,.7-1.44-.37-3.65,1.9-4.39,.99,.76,.05,2,.9,3.09,.57-1.59-.28-3.65,1.83-4.49,1.1,.7,0,2.17,.93,3.01,.68-1.45-.33-3.63,1.88-4.4,1.02,.77,.06,2.01,.93,3.09,.57-1.58-.28-3.64,1.83-4.48,1.1,.7,0,2.17,.92,3.01,.69-1.44-.33-3.63,1.88-4.4,1.02,.77,.08,2,.92,3.11,.57-1.59-.27-3.65,1.83-4.5,1.09,.7,.01,2.16,.91,3,.72-1.43-.36-3.64,1.9-4.38,1.01,.75,.06,1.98,.87,3.04,.69-1.56-.33-3.9,2.22-4.46,.1,1.01,.19,2,.34,3.46,.95-1.87-.13-4.08,2.13-4.82,1.01,.74,.07,1.98,.87,3.03,.69-1.56-.33-3.9,2.22-4.46,.1,1.01,.2,1.99,.34,3.45,.95-1.85-.14-4.06,2.13-4.8,1.02,.74,.07,1.97,.91,3.09,.59-1.64-.3-3.91,2.18-4.57,.11,1.06,.21,2.04,.36,3.48,.95-1.83-.14-4.04,2.12-4.78,1.02,.73,.07,1.97,.87,3.03,.7-1.56-.32-3.89,2.22-4.46,.11,1.01,.21,1.99,.39,3.71,.83-2.15-.12-4.3,2.08-5.06,1.03,.73,.08,1.97,.88,3.04,.69-1.56-.32-3.89,2.21-4.47,.11,1.01,.22,1.99,.4,3.69,.83-2.13-.13-4.27,2.09-5.05,.96,.75,.1,1.96,.86,3.06,.69-1.57-.31-3.9,2.21-4.48,.11,1.01,.22,1.99,.41,3.67,.82-2.11-.13-4.25,2.07-5.02,1.04,.72,.09,1.95,.78,2.9,.96-1.34-.31-3.8,2.31-4.33,.11,1,.23,1.97,.42,3.65,.82-2.09-.14-4.24,2.06-5,1.04,.71,.09,1.95,.78,2.9,.96-1.34-.3-3.8,2.31-4.33,.11,1,.23,1.98,.38,3.34,.95-1.74-.15-3.95,2.12-4.7,1.14,.95-.23,2.77,1.16,3.64,1.38-.26,1.41,.61,1.47,1.63,.55,9.93,2.57,19.68,5.81,28.98,2.09,5.98,3.01,12.3,5.69,18.08,1.66,3.59,2.03,7.56,3.29,11.28,2.63,7.72,4.69,15.62,7.2,23.39,2.59,8.01,3.6,16.32,2.01,24.86-.58,3.1-1.19,3.32-1.04,6.55-2.47,9.62-8.39,16.8-16.04,22.77-1.71,.75-2.34-.6-2.9-1.67-7.36-13.93-19.95-21.34-33.97-26.55-11.94-4.44-24.34-4.46-36.96-6.48-6.88-1.1-13.84-1.12-20.75-1.58-7.14-.48-14.31-.89-21.49-.93-16.53-.09-32.79,1.79-48.86,5.54-2.49,.58-5,1-7.51,1.36-1.36,.11-2.75-.08-4.1,.19-.3,.1-.62,.18-.93,.24-1.2,.23-2.46,.11-3.64,.5-.29,.1-.59,.18-.89,.24-1.07,.16-2.15,.27-3.18,.63-.48,.14-.96,.22-1.45,.26-1.19,.05-2.38,.14-3.52,.53-.9,.2-1.81,.29-2.73,.29-3.84-.11-7.6,.68-11.39,1.09-.38,.11-.77,.18-1.17,.22-2.79,.25-5.63-.28-8.38,.6-3.43,.46-6.86,.33-10.29,.17-1.49-.07-2.98-.33-3.99-1.66Z"/><path class="cls-29" d="M1642.61,972.62c.43,0,.86-.01,1.29-.02,1.06-.79,2.45,.15,3.5-.68h-.03c1.29-.89,2.91,.2,4.19-.7h-.02c1.27-.87,2.87,.2,4.15-.69,8.89-1.2,17.53-3.67,26.41-4.99,11-1.63,22.04-2.21,33.11-1.96,22.36,.52,44.64,1.63,66.28,8.26,13.81,4.23,26.99,6.52,37.51,16.83,3.05,2.99,5.66,6.39,7.54,10.29,.52,1.09,.75,2.54,2.38,2.69-2.17,1.63-4.34,3.26-6.45,4.85,1.6,2.61,3.34,3.35,5.64,.87,.67-.72,1.76-.35,2.63-.06,5.88,1.96,11.65,4.16,16.91,7.51,1.25,2.16-.29,3.22-1.77,4.13-1.88,1.16-4.04,1.67-6.15,2.24-5.68,1.53-11.41,2.87-17.17,4.03-7.78,1.57-15.13,4.06-21.77,8.46-.78,.52-1.7,.71-2.51,1.16-7.64-1.76-15.45-2.84-22.85-5.57-2.22-.82-4.17-2.05-4.28-4.87-.09-2.3,.37-3.64,3.22-3.52,10.45,.44,20.8-.54,31.05-2.61,2.04-.41,4.03-1.01,6.07-1.41,1.49-.29,2.87-.69,2.56-2.55-.36-2.13-2.11-1.9-3.57-1.59-3.95,.83-7.84,2.03-11.81,2.7-13.13,2.22-26.19,1.78-39.33-.58-32.32-5.78-64.72-8.16-97.08-13.71-.42-.07-.83-.19-1.99-.46,8.34,0,15.89-.04,23.44,.01,5.21,.04,10.41,.21,15.62,.3,1.44,.02,3.32-.43,3.33-1.72,.02-1.53-1.34-2.79-3.36-2.75-18.16,.29-36.31-1.05-54.48,.86-22.03,2.32-44.13,3.98-66.2,5.86-7.37,.63-14.7,1.84-22.14,1.49-1.59-.08-2.8,.97-2.86,2.45-.07,1.76,1.51,1.76,2.82,1.67,4.85-.36,9.69-.78,14.54-1.12,1.14-.08,2.7-1.1,3.34,.45,.56,1.36,.33,2.97-.68,4.28-1.75,2.28-4.07,3.84-6.73,4.73-7.25,2.42-14.68,4.23-22.24,5.26-16.73,2.28-33.5,4.26-50.26,6.35-.68,.09-1.38,.03-2.08,.03,1.15-3.25,4.57-3.91,6.78-5.96,6.04-4.02,11.75-8.53,17.88-12.43,1.6-.71,2.68-1.96,3.56-3.43,1.75-1.83,3.32-3.83,5.3-5.43,2.03,.45,4.07,.85,6.08,1.36,1.69,.44,3.23,.18,3.61-1.6,.44-2.09-1.57-1.98-2.79-2.19-12.61-2.2-23.05-8.52-32.39-16.96-.16-.14-.23-.38-.34-.58-.43-.97-.94-1.92-.93-3.02-.06-3.35-.13-6.7,.02-10.04,.64-2.43,.74-5.06,2.65-7.01,1.12-.62,2.08-1.47,3.15-2.17,5.41-3.45,11.25-2.36,16.76-.88,15.9,4.3,31.69,9,47.51,13.62,3.27,.95,6.63,.52,9.94,.96,7.17,.95,14.45,1.1,21.68,1.58,4.83,1.15,9.75,.58,14.63,.68,2.72-.88,5.61,.3,8.32-.66l.73-.03c3.92-.45,7.86-.68,11.74-1.36,.94-.01,1.88-.02,2.82-.03,1.09-.76,2.49,.15,3.57-.66Z"/><path class="cls-27" d="M1671.76,703.65c-1.58,1.38-1.6,2.76-.42,4.52,1.22,1.81,2.25,3.74,3.8,5.33,.7,.73,1.74,1.54,1.35,2.6-.45,1.21-1.8,.59-2.76,.73-1.54,.23-3.27-.58-4.6,.81-1.49,1.56-2.66,3.08-1.21,5.44,1.13,1.83,1.82,3.93,2.76,6.04-2.86,.59-5.65-.12-8.33,.77-3.06,1.01-4.2,2.77-3.51,5.93,.37,1.66,1.58,3.74,.3,4.92-1.21,1.12-2.85-.86-4.42-1.14-1.57-.28-3.08-.96-4.61-1.46-.85-.38-1.88-.05-2.65-.69-3.73-3.09-7.97-2.45-12.26-1.75-4.12,.67-8.1,1.94-12.17,2.84-11.54,2.56-23.03,1.12-34.54-.21-24.14-2.79-48.3-5.4-72.46-8.06-2.87-.32-5.72-.94-8.64-.59-2.22,.27-4.08,.94-4.55,3.45-.47,1.02-.89,1.44-1.98,.4-5.16-4.96-7.77-11.38-10.37-17.8-2.62-6.46-3.29-13.29-2.42-20.1,.9-7.1,2.53-14.19,6.9-20.07,2.05-2.75,4.09-5.58,6.63-8.04,2.8-2.7,6.2-4.26,9.34-6.33,1.83-1.2,3.3-3.16,5.87-1.84,.29-1.61,2.48-.77,2.92-2.39,.83-3.02,4.04-3.12,6.1-3.62,4.27-1.03,8.13-3.82,13-2.96,1.44,.25,3.56-.97,5.41-1.37,1.34-.28,2.2,.34,2.74,1.53-.28-1.22,.34-1.88,1.42-2.22,.67-.21,1.38-.15,2.07-.15,10.66-.02,21.32-.29,31.96,.17,2.97,.13,6.44,.98,8.82,3.09-.14,1,.59,.51,.13,.59-.13,.02-.12-.08-.14-.31-.08-.75,.11-1.35,1.03-1.91,.54,1.97,2.02,1.31,3.43,1.6,4.94,1.02,10.18,.65,14.84,2.98,.41,.21,.81,.45,1.26,.58q4.78,1.33,4.73,6.38c.01,.46,.61-.21,.19,0-.16,.08-.29-.02-.23-.24,.26-.91-.13-1.85,.15-2.75,.37-1.16,.9-1.95,2.21-.93,2.37,1.84,6.42,.59,7.81,4.28,.24,.63,.48-.1,.63-.23,1.21-1.07,2.62-.33,3.07,.42,1.15,1.94,5.24,1.44,4.2,4.4,0-.09,.45-1.63,.93-.67,.92,1.83,1.85,1.05,3.04,1.01,1.67-.06,2.3,1.23,2.75,2.64,.4,1.25-.18,2.51,.17,3.69,.13-1.35-.34-2.86,.61-4.48,1.81,1.7,1.06,3.57,1.24,4.97,1.77-3.57,2.72-3.69,5.57-.37,.81,.94,1.56,1.62,2.93,2.06,2.18,.7,3.94,2.38,3.63,5.2-.09,.86-.25,1.78,0,2.39,.14-1.05-.64-2.6,.84-3.43,1.41-.79,2.21,.79,3.28,1.35,2.19,1.16,3.64,3.42,6.38,3.84,1.57,.24,2.71,1.87,2.43,3.4-.66,3.58,1.52,5.65,3.6,7.78,2.59,2.66,2.59,5.23-.19,7.98Z"/><path class="cls-29" d="M1867.77,829.42c5.47,5.16,11.83,9.18,17.75,13.76,9.22,7.13,18.63,14.01,27.89,21.09,1.92,1.47,2.58,1.78,3.19-1.13,6.59-31.45,13.35-62.86,20.04-94.29,1.9-8.9,3.6-17.84,5.68-26.69,1.08-4.6,2.99-8.97,4.9-13.32,1.04-2.38,2.33-2.71,4.58-1.45,9.69,5.42,19.45,10.7,29.16,16.08,12.04,6.66,23.97,13.51,36.09,20.02,20.3,10.9,39.45,23.58,58.1,37.08,10.38,7.52,20.63,15.21,30.25,23.66,4.4,3.86,9.29,7.29,12.7,12.2-9.71-2.16-19.12-5.35-28.65-8.13-37.39-10.91-74.75-21.89-112.1-32.95-3.26-.97-4.99-.61-6.86,2.65-14.45,25.19-29.19,50.2-43.72,75.35-1.4,2.43-2.68,2.73-5.18,1.92-9.02-2.92-18.1-5.61-27.17-8.37-3.95-1.2-4.79-.68-5.17,3.28-.26,2.65-.47,5.3-.7,7.95-.21,.45-.44,.86-1.04,.77-1.17-.97-1.46-.12-1.82,.82-.86,2.26-1.42,4.63-2.42,6.84-.73,1.62-1.64,1.95-2.53,.07-.03-1.21,.32-2.46-.43-3.58-.76-1.45-.95-3.03-1.06-4.62,.13-1.34,.47-2.68,.02-4.02-.09-.28-.16-.57-.21-.87-.07-.43-.05-.85,.06-1.27,.08-.29,.22-.58,.1-.89-.1,.12,0,.25-.03,.38-.06,.2-.12,.41-.19,.62-1.4,3.5-3.49,6.63-5.17,9.97-.62,1.23-1.57,2.49-3.04,.68-.4-.95-.35-1.98-.46-2.98-.28-1.41-.5-2.83-.82-4.22-.1-.29-.17-.59-.23-.89-.17-1-.24-2.03-.68-2.95-1.28,2.77-1.53,5.82-2.46,8.66-.34,1.05-.39,2.51-1.94,2.5-1.41-.02-1.81-1.26-2.14-2.39-.61-2.12-1.36-4.24-1.56-6.4-.21-2.24-1.3-2.4-3.01-1.98-1.89-16.98-3.73-33.97-5.69-50.94-.39-3.36,.74-3.94,3.54-2.54,2.57,2.97,6.09,4.75,9.04,7.24,1.21,1.02,2.76,1.7,3.4,3.3Z"/><path class="cls-14" d="M1896.33,708.45c-.13-1.6-2.42-1.31-2.54-2.91-.62,.46-1.24,.92-2.16,1.61-.12-1.05-.22-1.95-.34-3-1.08,.87,.05,2.28-.99,3-2.22-.75-1.38-2.87-2.17-4.39l-.3,3.04c-2.57-.65-1.62-2.81-2.28-4.78-.27,1.43-.45,2.4-.64,3.41-2.47-.78-1.41-3-2.28-4.96-.15,1.49-.25,2.47-.37,3.55-2.52-.68-1.71-2.77-2.06-4.45-1.12,.87-.02,2.28-1.02,3.01-2.29-.72-1.24-2.93-2.1-4.89-.16,1.48-.27,2.46-.38,3.54-2.55-.65-1.63-2.79-2.25-4.85-.28,1.5-.46,2.47-.65,3.48-2.47-.76-1.43-2.98-2.07-4.47-.89,.87-.05,2.09-.74,3.02-2.39-.61-1.48-2.74-2.09-4.8-.28,1.5-.46,2.47-.65,3.47-2.47-.76-1.44-2.97-2.07-4.47-.92,.86-.02,2.08-.78,3.01-2.36-.6-1.46-2.73-2.06-4.79-.28,1.51-.46,2.47-.65,3.47-2.47-.75-1.44-2.96-2.07-4.46-.93,.85-.03,2.08-.78,3-2.35-.6-1.46-2.72-1.91-4.26-1.17,.73,.03,2.15-.96,2.89-2.32-.69-1.29-2.9-1.91-4.41-.94,.85-.03,2.07-.79,2.99-2.34-.6-1.47-2.71-1.91-4.26-1.15,.75,.02,2.16-.96,2.89-2.24-.71-1.43-2.82-1.81-4.49-1.04,.93-.14,2.15-.89,3.08-2.33-.6-1.47-2.7-1.92-4.3-1.1,.8,0,2.19-.93,2.94-2.33-.68-1.32-2.88-1.92-4.4-.95,.84-.04,2.05-.78,2.97-2.9-.63-.86-3.75-2.46-4.99-.92-1.95,.85-2.71,1.81-3.63,4.99-4.81,9.69-9.88,13.9-15.38,3.65-4.76,6.72-9.9,9.54-15.19,.55-1.03,.96-2.11,.69-3.32l3.9-11.31c2.37-7.33,8.92-9.63,14.98-12.68,7.26-3.66,15.11-5.7,22.6-8.71,2.12-.86,4.59-1.23,6.67-1.36,7.33-.47,14.14-3.56,21.72-3.22,6.34,.28,12.78-1.27,19.25-1.24,2.09,.01,4.16,.16,6.24,.19,2.86,.03,4.51,1.19,4.44,4.23,.05,1.23,0,2.45-.51,3.6-.28-.22-.45-.47-.26-.83-.41,.32-.37,.83-.27,1.18,.35,1.22-.43,2.52,.33,3.69,.07,1.46,.07,2.92-.5,4.31-.65,3.84,1.54,6.03,5.19,5.1,1.46-.38,2.92-.69,4.37-.29,1.13,.32,2.59,.48,2.32,2.3-1.62,2.61,.05,4.58,1.29,6.63q2.2,3.64-1.6,5.21c-4.83,2-5.19,2.49-3.07,7.4,1.09,2.53,.17,3.04-1.96,3.3-4.95,.61-4.93,.62-3.68,5.46,.4,1.53,.67,3.1,1.07,4.98-3.41-.79-6.56-1.38-9.62-2.25-2.79-.79-4.68,.15-6.16,2.46-4.06,6.33-8.14,12.65-12.21,18.98-1.25,1.95-2.58,3.83-4.42,5.29-11.86,8.8-24.7,16.11-36.93,24.36-1.01,.68-2.09,1.58-3.47,.71Z"/><path class="cls-29" d="M1502.04,734.11c-.01-4.83,.43-5.32,5.65-5.54,5.91-.24,11.69,1.14,17.54,1.61,7.33,.59,14.62,1.67,21.94,2.52,9.71,1.12,19.43,2.25,29.15,3.3,7.78,.84,15.62,1.32,23.36,2.4,9.92,1.38,19.52,.18,29.09-2.32,3-.78,6.06-1.4,9.11-1.93,4.75-.82,8.79,.72,12.23,4-4.16,.39-7.55,2.76-11.18,4.45-12.88,6.02-25.76,12.38-39.77,14.97-18.04,3.33-36.19,5.74-54.76,3.27-16.97-2.26-30.41-10.1-41.61-22.54,.08-1.45-1.55-2.61-.74-4.19Z"/><path class="cls-29" d="M1896.33,708.45c4.78-1.86,8.64-5.23,12.94-7.88,8.53-5.26,16.88-10.81,25.29-16.26,.68-.44,1.28-1,2.17-.93-7.37,8.77-14.86,17.42-22.07,26.32-24.57,30.31-54.56,54.25-87.39,74.89-2.93,1.84-6.04,3.41-9.09,5.05-1.46,.79-2.67,1.79-1.81,3.52,1.04,2.08,2.51,.77,3.8,.13,1.02-.51,2.01-1.08,3.09-1.67,.87,1.1,.2,2.04,.04,2.97-2.75,2.9-6.25,3.78-10.1,3.73-2.32-.03-3.6-1.19-4.03-3.48-.57-3.08-.25-5.96,1.58-8.58,2.16-11.91,9.95-20.43,17.16-29.5,8.39-10.56,19.81-16.74,30.81-23.69,12.3-7.77,24.48-15.7,36.71-23.59,.37-.24,.61-.68,.9-1.03Z"/><path class="cls-26" d="M1921.36,368.42c-.55-2.98,.55-5.76,1.55-8.37,1.14-2.96,1.35-6.16,2.66-8.99,1.35-2.91-.6-5.19-.62-7.87-1.56,.3-1.57,2.41-1.85,2.18-1.35-1.09-3.17-.29-4.38-1.33-.36-.31-.39-.99-.57-1.5-.12,.43-.17,.91-.39,1.29-.32,.56-.38,.03-.58-.18-.29-.31-.96-.05-1.31,.58-.07-1.06-.14-1.95-.21-3.01-1.16,.86-.06,2.23-.97,2.97q-1.6-1.47-1.97-4.32c-.62,.37-.36,.98-.43,1.49-.05,.44-.09,.89-.14,1.48-2.51-.65-1.68-2.73-2.11-4.33-1.13,.79,.02,2.18-.95,2.91-2.24-.68-1.45-2.78-1.79-4.46-1.07,.91-.16,2.11-.91,3.04-2.31-.58-1.5-2.65-2.06-4.83-.29,1.58-.46,2.52-.64,3.51-2.47-.68-1.5-2.86-2.05-4.41-.99,.81-.07,2.01-.84,2.97-2.36-.62-1.38-2.91-2.22-5.15-.17,1.78-.26,2.77-.36,3.82-2.56-.68-1.6-2.85-2.14-4.4-1.1,.78,.13,2.24-.97,2.95-2.26-.74-1.2-2.94-2.11-4.89-.14,1.5-.23,2.48-.33,3.56-2.53-.7-1.72-2.79-2.07-4.45-1.17,.84,.02,2.28-1.03,3-2.28-.73-1.23-2.94-2.1-4.9-.15,1.49-.25,2.47-.36,3.55-2.55-.66-1.65-2.8-2.26-4.87-.28,1.51-.46,2.48-.65,3.49-2.4-.8-1.56-2.91-1.97-4.56-1.01,.95-.12,2.17-.87,3.1-2.35-.6-1.46-2.72-1.91-4.27-1.16,.74,.02,2.16-.96,2.9-2.31-.7-1.3-2.89-1.91-4.43-.07,.33-2.15,1.81-2.85,2.14-.16,.07-.27,.26-.39,.4-2.75,3.3-4.67,6.96-4.86,11.35-.04,1.03-.45,1.77-1.39,2.2-2.03-1.14,.65-2.9-.54-4.15,3.69-14.85,7.68-29.6,12.97-43.98,1.29-.82,1.41-2.24,1.8-3.52,.27-.89,.5-1.77,.92-2.61,4.46-8.97,8.78-9.67,18.03-4.79,6.16,3.25,10.6,8.87,15.15,14.11,6.5,7.47,11.27,16.03,15.31,25.02,.21,.47,.22,1.19,1.03,1.16,1.08,1.24,1.18,2.64,.9,4.21-1.03,5.88-1,11.94-2.95,17.67-.17,.51,.01,1.14,.03,1.72-1.47,7.52-3.75,14.83-5.88,22.18-.42,1.44-.36,3.33-2.51,3.62Z"/><path class="cls-30" d="M1868.6,611.23c.16,24.81-12.13,43.26-29.98,58.88-.78,.69-1.6,1.33-2.4,2-5,4.19-5.71,4.26-11.55,1.17-7.31-3.86-11.13-11.59-9.5-20.92,3.77-21.56,16.22-36.87,35.23-47.06,4.47-2.4,9.41-2.68,14.52-1.58,3.16,.68,4.43,1.9,3.71,5.08-.18,.77-.03,1.61-.03,2.42Z"/><path class="cls-29" d="M1540.28,351.07c5.78,4.62,12.47,7.78,18.72,11.64,21.07,13,42.87,24.81,63.44,38.64,.37,.25,.85,.31,1.29,.47,2.21,1.32,4.61,2.41,5.75,4.96-4.39,5.23-9.8,3.57-15.18,2.3-18.6-4.4-35.71-12.45-52.35-21.57-17.06-9.35-33.17-20.17-48.88-31.61-2.72-1.98-4.71-4.3-6.01-7.37-2.67-6.32-4.55-12.83-5.19-19.68,.25-.26,.55-.39,.91-.39,6.64,3.21,12.73,7.39,19.07,11.13,6.24,3.68,12.54,7.27,18.43,11.51Z"/><path class="cls-30" d="M1555.7,556.37c-.1-10.83,2.43-20.79,8.98-29.66,3.78-5.11,7.13-10.54,10.54-15.92,1.13-1.78,2.27-2.13,4.29-1.58,5.05,1.38,7.81,5.16,10.25,9.29,2.76,4.67,3.89,9.91,4.57,15.19,1.95,15.05,.3,29.55-7.33,42.98-4.2,7.41-9.87,13.08-18.48,15.11-1,.24-2.06,.21-3.09,.38-2.47,.41-3.63-.58-4.35-3.05-3.14-10.71-5.24-21.56-5.38-32.74Z"/><path class="cls-37" d="M1867.77,829.42c-4.29-3.1-8.6-6.2-12.88-9.32-1.06-.77-.27-1.01,.43-1.23,13.97,2.61,27.97,5.08,41.89,7.93,3.62,.74,4.69-.4,5.35-3.63,8-39.3,16.09-78.58,24.11-117.88,.31-1.52,.85-2.82,1.77-4.05,7.37-9.81,14.75-19.61,22.02-29.49,1.19-1.62,2.41-2.04,4.37-1.89,26.07,1.97,52.16,3.59,78.21,5.84,14.05,1.21,27.89,4.17,41.7,7.01,32.49,6.68,64.64,14.63,95.97,25.65,17,5.98,33.84,12.37,49.79,20.88,1.73,.92,3.41,1.93,5.43,3.09-1.76,1.63-3.33,3.1-4.91,4.56-1.11-.67-.35-1.98-.96-2.84-.86,.56-.07,1.57-.84,2.36-.17-.46-.24-.88-.45-1.21-.54-.84,1.04-4.69-2.29-1.65-.39-.72-.79-1.29-1.34-.11-.8-1.05-.22-2.54-1.45-3.6-1.35-1.16-1.78,2.4-2.98,.34-.32-.56-.51-1.5-1.42-1.14-1.06,.41-.36,1.4-.49,2.13-.06,.32-.3,.61-.94,1.83,.5-4.71-.87-7.02-5.13-6.37-1.02,.16-1-.7-1.18-1.31-.21-.71-.47-1.36-1.35-1.26-1.29,.15-2.76,.83-3.04-1.36,0-.05-1.48-.2-1.89,.15-2,1.7-2.53,.19-3.23-1.5-.15,.93-.28,1.67-.4,2.44-1.43-1.07-1.17-4.61-4.31-2.65-.53-2.71-3.45-2.38-4.87-2.72-3.07-.75-5.22-4.22-8.81-2.99-.63,.22-1-.08-1.05-.47-.23-2.07-1.99-1.53-3.16-2.17-4.62-2.53-3.24,.67-3.08,2.89,.01,.16-.24,.34-.38,.5-1.51-7.3-3.48-6.84-6.2-4.66,.63-1.94,.37-3.36-1.77-2.77-2.37,.66-4.17-1.02-6-1.62-5-1.65-10.3-2.53-14.99-5.12-.78-.43-1.82-.53-2.57,.19-.94,.9-1.48,1.32-2.02-.42-.35-1.15-1.21-1.84-2.64-.66-.91,.75-2.27,.38-2.65-.95-.43-1.51-1.56-1.07-2.5-1.2-1.87-.26-2.69,.74-2.57,2.78-.7-3.18-.7-3.2-3.94-2.88-.46,.05-.62-.14-.8-.45-1.58-2.69-5.31-.77-6.99-3.26-.05-.07-.41-.02-.54,.09-2.75,2.09-4.79-.12-7.02-1.15-.32-.15-.5,.03-1.05,1.39-1.75-2.55-3.69-4.59-7.08-2.99-.18,.09-.57,.15-.61,.08-2.12-3.65-3.41-.76-4.89,.92-.19-1.06-.33-1.82-.6-3.35-.27,1.53-.4,2.29-.59,3.39-.56-1.37-.81-2.45-1.48-3.42-.8-1.17-1.72,.13-2.43-.44-.9,3.2-2.4-.75-3.48,.29-.55-2.62-2.69-1.87-4.41-2.14-3.94-.62-7.84-1.26-11.7-2.5-2.42-.78-5.3-1.28-7.71-1.31-5.25-.07-10.1-2.52-15.59-1.63-2.42,.39-5.95-.48-8.71-2.05-2.52-1.43-2.47,.89-2.89,2.79-.58-1.37-1-2.37-1.5-3.56l-1.23,3.1c-1.29-.37,.31-2.91-2.16-2.66-1.28,.13-2.49-.36-3.37,1.02-.28,.44-.93,.94-1.18-.12-.21-.87-.32-2.08-.75-.07-.13,.59-.68,.93-.86,.46-.85-2.14-3.4-.02-4.63-2.12-.63-1.07-3.11-.46-3.92,2.39-.25-1.64-.36-2.39-.62-4.07-.3,1.67-.43,2.41-.66,3.71-1.61-4.17-4.89-2.62-7.48-2.65-2.07-.02-.24,2.58-1.86,3.72,.66-3.9-1.72-3.61-4.38-4.34-5.25-1.44-10.44-.95-15.67-1.17-1.96-.08-3.42,.05-3.2,2.82-1.27-3.43-3.66-4.2-6.57-4.19-3.99,.02-7.98,.07-11.97-.06-5.08-.16-7.81,3.23-10.93,6.47-2.03,2.11-2.69,4.47-3.66,6.97-.3,.76-2.76,1.13-3.58,2.63-1.67,3.05-5.73,4.72-5.23,9.03-1.32-.43-1.71,.51-2.49,1.33-3.99,4.22-3.79,9.69-5.01,14.82-1.19,5-1.8,10.07-2.79,15.09-1.2,6.11-2.53,12.2-3.95,18.26-1.25,5.32-1.97,10.74-3.48,16.01-.77,2.67-1.07,5.52-1.6,8.28-1.72,8.89-3.48,17.76-5.51,26.59-1.74,7.56-3.15,15.21-4.5,22.85-.94,5.33-2.45,7.39-8.86,7.5-4.74,.08-9.26-1.08-13.77-2.52-1.99-.64-3.05,.85-2.33,3.3-1.52-3.69-3.49-4.5-6.95-3.03-.3,.13-.19,.85-.94,.33-2.08-1.44-2.13-1.37-4.21,.2Z"/><path class="cls-31" d="M1879.85,878.09c.6,1.57,.16,3.4,1.22,4.86,.46,1.13,.36,2.27,.07,3.42,.66,1.45,1.02,1.13,1.45-.17,1.07-3.24,2.24-6.44,3.44-9.85,.73,.93,1.36,1.73,1.98,2.53,.25,1.12,.3,2.25,0,3.37-.88,11.39-1.76,22.78-2.64,34.17-.27,3.45-.8,6.91-.72,10.36,.06,2.92-.92,3.21-3.38,2.47-11.62-3.47-23.21-7.04-34.93-10.13-4-1.06-5.89-3.06-7-6.88-1.99-6.84-4.48-13.54-6.96-20.88,8.01,2.52,15.57,4.88,23.12,7.28,4.01,1.27,4.83,.4,4.3-3.92-.91-7.44-1.57-14.9-2.33-22.36,.84-.74,1.68-1.48,2.76-2.43,.93,3.74,1.84,7.24,2.65,10.76,.19,.81,.17,1.87,1.07,1.94,1.39,.12,1.01-1.28,1.22-2.05,.99-3.62,1.89-7.25,2.86-11.02,.43,.82,.79,1.5,1.15,2.17,.8,1.08-.14,2.49,.68,3.57l-.04-.05c.91,1.24-.14,2.92,.93,4.13,.43,1.19-.21,2.53,.5,3.68,1.69,1.3,1.6-.64,1.94-1.22,1.93-3.33,3.33-6.97,5.65-10.09,.78,.54,.1,1.59,.76,2.17l-.03-.07c.7,1.38,.33,2.82,.27,4.25Z"/><path class="cls-37" d="M1866.56,333.62c2.18,1.12-.25,2.85,.54,4.15,.19,2.4,.42,4.86-1.14,6.93-1.41,1.87-.77,4.19-1.06,6.14-.96,6.49-2.68,12.83-3.71,19.31-.96,6.1-1.9,12.35-3.01,18.46-.67,3.7-1.36,7.75-1.42,11.77-.04,3.17,.67,6.64-.66,9.68-.77,1.76-.36,3.9-.13,4.98,1.01,4.66,.21,9.38,.92,14.08,.67,4.39,2.93,6.61,5.45,9.22,3.05,3.17,6.27,6.17,9.29,9.37,1.26,1.34,2.13,2.15,.66,4.89-1.5,2.81-3.42,1.62-4.86,2.64-.73,.52-.73-.1-1.09-.57-1.32-1.7-.16,1.24-1.03,.54-.54-2.65-.95-2.22-5.57-6.53-1.76-1.64-.91-.31-1.57,.95-.09-1.75-.15-2.89-.22-4.33-1.09,1.33-.22,2.66-1.19,3.98,1.05-5.41-2.65-7.93-6.87-10.14,.06-.09,.9,1.09,.21,1.65-1.66-1,.74-3.33-1.47-3.83-.95-.22-.7,1.32-1.57,1.71-.11-1.01-.21-1.96-.32-2.91l-.42,.02c-.08,.98-.16,1.95-.3,3.7-1.17-1.93-.47-3.25-.34-4.41,.25-2.14-1.02-2.09-2.41-2.02-2.11,.11-1.61-1.73-2.23-3.01-.29,.65-.52,1.18-.77,1.75-1.03-1.48-.52-4.07-2.96-4.22-3.37-.21-3.99-3.49-6.12-5.05-.72-.53-1.19-1.79-2.16-1.49-1.24,.38-.8,1.74-.9,2.73-.04,.4-.14,.79-.3,1.69-1.32-2.33,.96-4.59-.71-5.86-1.3-.99-3.14-1.26-4.33-2.65-1.58-1.85-3.05-2.81-3.48,.86-.13-.73-.26-1.46-.38-2.09-1.45-.55,.91,3.73-1.92,1.34,.45-.46,.35-1.04,.34-1.6-.03,.55,.07,1.13-.34,1.6-.67-1.19-1.66-2.3-1.95-3.57-.96-4.17-5.66-4.96-7.42-4.46-2.51,.72-2.01-.73-2.44-1.5-1.51-2.68-3.71-3.11-5.43-.92-.09-.69-.18-1.36-.29-2.12-.97,.56-.23,1.52-.73,2.13-.75-.08-.6-.81-.71-1.23-.22-.8-1.09-1.64-1.9-1.59-.18,.01-.43,.08-.52,0-3.08-2.87-3.12-2.69-7.13-3.55-.79-.17-2.92,.33-2.98-1.95-.05-1.69-2.38-1.91-3.1-2.02-4.05-.65-7.49-3.3-11.71-3.29-1.74,0-3.14-1.35-5-1.58-1.01-.12-1.57-.73-2.37,.36-.59,.8-1.13,.66-1.26-.43-.03-.25-.3-.7-.41-.69-2.4,.29-2.4,.3-4.02-1.64-.8,.21-1.98,3.83-2.89,.17-1.01,3.6-1.92,.08-2.88-.04q-1.29,1.82-2.16,5.86c-.08-1.87-.16-3.74-.25-5.61l-.49-.02v5.41l-.61,.05c-.17-.85-.48-1.7-.48-2.55-.03-4.76,0-4.63-4.55-4.78-7.45-.25-14.83-1.34-22.22-2.25-2.16-.27-4.4-.43-6.71,.31-1.46,.47-3.22-1.17-5.12-.84-5.54,.98-11.35-.13-16.69,1.01-4.85,1.03-9.58,.67-14.32,1.22-1.81,.21-3.37,1.47-5.34,1.56-1.15,.05-3.49,.27-5.26,0-1.65-.25-3.07,.9-4.65,1.26-8.22,1.9-9.97,.63-9.3-8.13,.54,1.16,.89,1.92,1.25,2.69-.03,2.51,1.68,2.6,3.33,2.09,15.64-4.84,32.03-4.35,48.01-6.75,6.26-.94,12.46,.67,18.66,1.31,11.16,1.16,22.48,1.72,33.42,4.02,33.82,7.11,62.98,23.58,88.94,46.08,6.23,5.4,11.57,11.67,17.44,17.42,.5,.49,.93,1.03,1.44,1.51,1.14,1.06,2.32,2.91,3.99,1.3,1.59-1.53,.14-2.88-1.05-4.07-3.68-3.69-7.18-7.58-11.03-11.08-2.43-2.21-3.25-4.67-3.52-7.86-1.75-20.04,1.12-39.72,4.41-59.37,1.98-11.86,4.37-23.65,7.52-35.26Z"/><path class="cls-29" d="M1921.36,368.42c1.58-1.47,1.4-3.6,2.02-5.42,2.3-6.74,3.59-13.79,6.36-20.38-1.06,12.69-3.12,25.22-5.59,37.7-5.21,26.37-12,52.29-22.43,77.13-3.85,9.18-8.35,18.04-14.02,26.57-1.42-1.74-.39-5.3-3.91-5.15-.48-2.82-.78-5.7-1.5-8.46-.93-3.62,.04-6.81,1.66-9.91,14.64-28.08,25.98-57.54,36.37-87.39,.53-1.51,1.21-3.01,1.03-4.69Z"/><path class="cls-33" d="M1502.09,961.58c-.71,2.05-1.41,4.1-2.12,6.15-.58,3.96-.61,7.91,.02,11.87-.2,.68,.79,1.36,.01,2.05-11.74-11.87-15.82-26.52-15.42-42.75,.25-9.96,3.3-19.29,6.6-28.58,15.03-42.32,30.02-84.65,44.95-127,1.84-5.22,3.4-10.56,4.77-15.92,.61-2.39,1.58-3.02,3.97-2.8,6.56,.61,13.14,1.25,19.73,1.33,24.16,.27,46.79-6.22,68.59-16.13,3.89-1.77,8.02-3.19,11.53-5.53,3.87-2.58,7.23-1.86,10.93-.16,6.94,3.19,8.33,2.16,7.65-5.51q-.45-5.15,4.81-4.87c.69,.04,1.39,.02,2.08,.01,5.45-.02,6.39-1.45,4.25-6.49-.34-.81,.1-.89,.74-.79,2.45,3.08,2.69,7.14,.61,10.33-2.57-1.33-3.01,3.32-5.97,1.98-1.65-.75-4.5-.71-3.83,2.78,.63,3.26-3.04,4.92-2.81,7.99-3.69-.41-4.31,1.89-3.97,4.83-1.44,.03-1.75-.84-2.08-1.7-1.03-2.64-2.7-4.07-5.7-3.07-.15,.05-.37-.16-.56-.23-4.66-1.79-4.97-1.59-4.91,2.98,0,.42-.11,.85-.22,1.6-.75-1.44-.23-2.9-1.27-3.83-1.67,.19-2.56,2.9-5.01,1.26-.87-.58-1.93,1.09-1.79,2.31,.2,1.8-.7,.91-1.35,.68-1.61-.58-3.17,.57-3.64,1.36-1.59,2.72-4.58,1.64-6.42,1.98-3.09,.57-3.42,2.33-4.24,4.75-.12-2.22-1.24-1.04-1.82-1-2.07,.14-4.01-.33-6.28,.56-2.09,.82-3.15,1.24-2.63,3.6-1.34-.44-2.11-2.48-2.6-1.77-1.61,2.35-4.79-.06-6.01,2.25-.59,1.12-2.04,.87-2.41,2.07-.09,.31-.49,.2-.85,.02-3.28-1.65-3.3-1.63-4.5,2.1-.86-.5-.06-1.51-.69-2.1-.86,.49-.11,1.46-.61,2.08-.71,.1-.83-.6-1.12-.98-1.06-1.38-2.18-1.89-3.29-.18-.54,.84-.93,.37-1.59,.33-3.66-.17-7.32-.81-10.92,1.16-.58,.31-3.83,2.41-5.32-.41-2.42,2.37-4.42-1.12-6.98-.45-2.67,.69-5.66,.13-8.51,.14-2.96,.01-5.93,0-8.89,.1-3,.1-4.87,1.91-5.66,4.59-1.89,6.41-4.87,12.42-6.17,19.09-.89,4.53-3.99,8.59-5.16,13.11-2.16,8.32-5.97,16.03-8.12,24.39-1.3,5.04-4.64,9.67-5.66,14.96-1.61,8.35-6.81,15.41-8.36,23.7-1.3,6.95-5.24,12.88-7.08,19.58-1.41,5.12-2.42,10.44-4.99,15.09-2.89,5.22-3.35,11.18-5.7,16.47-1.31,2.94-1.5,5.96-2.2,8.92-1.6,6.72-2.8,13.65-1.38,20.49,1.53,7.41,3.85,14.67,8.15,21.13,1.18-1.1,1.9-2.3,2.02-4.3,.43,1.07,.63,1.57,.84,2.09,1.63-2.82,.97-6.78,4.57-8.47,.22,.18,.29,.35,.22,.53-.08,.17-.15,.26-.23,.26Z"/><path class="cls-37" d="M1502.04,734.11c.34,1.38,1.78,2.56,.74,4.19-9-10.28-15.24-22.01-15.8-35.79-.89-21.7,8.88-37.76,27.75-48.32,13.21-7.39,27.61-10.58,42.56-10.98,22.17-.59,43.79,2.68,64.47,11.01,12.74,5.14,24.51,11.91,34.82,21.12,4.24,3.8,9.57,5.35,15.11,6.24-3.86,9.29-3.72,8.05,3.66,13.82,2.32,1.82,5.55,3.9,5.02,6.46-.37,1.78-4.66,1.29-7.22,1.71-.45,.07-.92,.05-1.38,.07,3.12-4.18,.31-6.95-2.35-9.72-1.49-1.55-2.69-2.97-1.65-5.44,.4-.96-.26-2.98-1.55-3.15-3.68-.47-5.93-2.97-8.44-5.16-1.33-1.16-1.72-.38-2.03,.88-.3,1.22,.89,2.49-.44,4-.21-2.11-.21-3.97-.62-5.74-.4-1.71-.85-3.57-3.61-2.79-.9,.25-1.67-1.34-2.34-2.29-2.51-3.54-2.72-3.53-4.96-.11-.23,.35-.53,.67-1.21,1.52v-6.01l-.57-.02v5.65c-1.3-.9-.92-1.97-1-2.77-.46-4.3-.39-4.64-4.04-4.7-1.86-.03-1.11-1.18-1.63-1.83-.86,.49-.13,1.45-.63,2.06-.76-.07-.64-.8-.71-1.21-.31-1.73-.26-1.74-1.9-1.61-.18,.01-.35,.02-.53,.03,0-.33-.04-.68,.03-1,.54-2.52-2.14-1.23-3.01-2.46-.83-1.17-1.01,1.16-2.01,1.72-.66-5.5-6.71-2.71-8.79-6.07-1.49,1.39-.13,3.58-1.68,5.51,0-1.6,.1-2.72-.02-3.81-.21-1.98-.85-3.79-3.38-3.21-2,.46-3.32-1.12-4.83-1.67-2.46-.9-4.92-1.61-7.14-.76-1.73,.66-2.17-2.38-3.64-.68-1.91-2.48-2.77,.55-4.16,.85-.98-.82-.05-2.04-.88-3.15-.17,1.11-.3,2.01-.53,3.57-.74-2.97-2.69-3.08-4.77-3.66-12.04-3.34-24.26-.66-36.37-1.39-3.16-.19-3.17,0-2.72,3.47-1.36-1.1-1.73-4.29-3.82-2.56-1.12,.93-2.99-.82-3.35,1.43-.12,.76-.91-.12-1.38-.18-3.79-.52-6.95,1.21-10.4,2.25-2.07,.62-4.14,1.88-6.6,2.05-1.35,.1-2.5,3.09-3.79,4.84-.7-.39,.08-1.38-.49-1.96-.12,.08-.35,.14-.38,.25-.2,.76,.33,2.21-1.44,1.35-2.8-1.37-3,1.76-4.48,2.53-6.45,3.38-9.92,5.29-13.11,9.76-1.31,1.85-2.84,3.63-3.91,5.65-2.11,3.97-3.42,8.16-4.56,12.59-1.58,6.14-1.57,12.09-.6,18.01,1.28,7.73,4.74,14.75,9.19,21.2,1.05,1.53,3.27,2.17,3.52,4.39Z"/><path class="cls-37" d="M1502.75,328.78c-.29,.01-.59,.03-.88,.04-4.03-18.03-6.01-36.17-3.39-55.26,61.31,26.12,118.08,57.8,164.11,107.58-2.36,.53-3.84,.86-5.33,1.2q.1-2.82-4.83-5.63c-.57-.33-1.13-.35-1.41,.21l-.31-3.7h-.43l-.26,4.42c-1.32-2.82,.45-5.56-2.06-7.06-.56-.33-.67-1.63-1.62-.28-.56,.8-.9,.36-.71-.47,.08-.33,.13-.66,.19-.99-3.77-.39-3.77-6.31-8.16-5.58-.64,.11-.69,.13-.66-.33,.16-2.53-1.9-3.85-3.13-5.57-1.37-1.92-3.07-3.36-3.61,1.09,.13-2.36-.38-5.59-1.73-5.14-3.18,1.06-2.2-1.43-3.01-2.47l-.75,1.84c-.79-1.95-1.02-4.48-3.12-4.78-3.82-.53-5.15-4.22-8.12-5.85-1.03-.57-2.36-1.95-3.5-3-.84-.78-1.92-3.26-3.03-.1-.18,.51-.37,.09-.59-.14-.33-.34-.94-.12-1.4,.69v-3.68l-.53-.04c-.1,1.11-.19,2.22-.34,3.97-1.06-2.31-.49-4.59-2.18-6.14-1.77-1.63-3.14-3.17-3.42,.91-1.33-1.33,.77-3.48-.73-3.83-1.65-.39-3.35-2.9-5.32-.57-.16-.17-.26-.37-.29-.59-.06-.41-.03-.82-.06-1.23,0,.3-.01,.61,0,.91,.01,.34,.09,.66,.35,.91-.98,1.92-1.15,.32-1.34-.36-.71-2.56-.73-2.5-4.02-4.44-.89-.52-.97-1.78-.9-2.85-4.34-.1-7.3-3.23-10.66-5.23-19.32-11.45-39.29-21.56-60.05-30.12-3.65-1.51-7.49-2.33-11.41-2.67-3.29-.29-4.9,1.2-5.02,4.61-.13,3.59,.54,7.14,.77,10.71,.52,8.16,.66,16.4,3.02,24.34,.45,1.52,.95,3.13-.1,4.66Z"/><path class="cls-24" d="M1854.6,1030.04c-1-.25-2.03-.43-3.01-.77-2.68-.91-3.78-.09-3.19,2.75,2.91,3.98,6.63,6.99,11.01,9.18,5.89,2.94,11.77,5.88,17.28,9.5,.68,.44,1.36,.88,1.97,1.41,.42,.36,1.06,.7,.9,1.34-.22,.9-1.01,.73-1.7,.66-.58-.06-1.15-.09-1.7,.16-8.08-1.08-15.46-4.57-23.23-6.68-15.05-4.1-30.38-6.98-45.54-10.58-.55-.13-1.06-.39-1.6-.59-1.8-1.46-1.36-2.4,.52-3.48,5.02-2.87,10.63-3.79,16.12-5.1,7.62-1.82,15.33-3.29,22.95-5.14,1.72-.42,3.42-.58,5.15-.37,3.02,.36,5.58,2.67,6.14,5.57,.32,1.66-.94,1.86-2.08,2.13Z"/><path class="cls-29" d="M1678.62,692.4c7.66,2.08,15.16,4.68,22.93,6.39,9.24,2.03,18.65,2.71,27.98,4,1.49,.21,3.02,.07,4.09,1.42-1.65,3.15-4.84,4.55-7.57,6.34-7.73,5.09-15.77,9.64-25.03,11.45-3.97,.77-7.4-.05-10.55-2.85-2.96-2.62-5.97-5.19-7.91-8.62-1.42-2.51-4.11-2.25-6.01-3.6,1.24-.91,2.68-.49,4.04-.62,4.81-.48,6.11-2.94,4.1-7.36-1.32-2.89-4.27-4.16-6.06-6.54Z"/><path class="cls-37" d="M1525.84,1001.61c-.68,2.74-3.09,4.03-4.92,5.81-.26,.21-.56,.32-.9,.32-1.29-.29-1.51-2.06-2.41-2.27-4.01-.94-7.51-4.04-12.18-2.52-1.62,.53-3.61,.6-5.45,.67-1.11,.05-2.03,.42-2.67,1.35-.82,1.18-1.49,2.25-3.27,1.08-.96-.62-2.08,.12-2.19,1.41-.16,1.99,.28,4.1-1.34,5.75,.36,.24,.79,.38,1.08,.75,.19,.29,.19,.59,.02,.88-9.97,3.03-19.87,6.36-28.33,12.58-3.03,2.23-5.62,2.6-9.16,1.34,4-4,8.85-6.38,13.64-8.72,5.8-2.84,11.78-5.32,17.68-7.97,.84-.38,1.74-.7,2.47-1.24,.9-.67,1.98-1.49,1.09-2.82-.74-1.1-1.77-1.19-3.01-.58-9.52,4.68-19.37,8.71-28.55,14.1-1.01,.6-1.9,1.79-3.62,1.04,1.27-2.26,3.32-3.6,5.25-4.95,14.82-10.31,30.98-17.8,48.32-22.77,1.2-.34,2.34-.68,3.62,.16,4.56,3.01,9.73,4.7,14.81,6.57Z"/><path class="cls-37" d="M1854.6,1030.04c.23-.83,2.31-1.01,1.34-1.85-1.47-1.28-.79-3.9-3.19-4.43-2.72-.6-5.25-1.04-8.04,.29-2.3,1.09-5.09,1.26-7.58,1.67-6.16,1.01-12.05,3.02-18.13,4.16-4.4,.82-8.36,2.36-12.45,4.02-2.36,.96-.44,1.77-.76,2.54-2.6-.06-5.03-.95-7.52-1.56,4.87-4.73,10.97-7.16,17.33-8.9,9.32-2.54,18.93-3.98,28.15-6.98,2.02-.66,4.01-1.44,3.9-4.15,5.32,1.94,10.19,4.8,14.92,7.82,8.61,5.51,17.58,10.5,25.38,17.2,.17,.64,.03,.97-.71,.69-7.89-4.81-15.16-10.6-23.3-15.02-1.72-.94-3.54-1.69-5.3-2.56-1.25-.63-1.97,.12-2.61,.97-.85,1.13-.16,1.96,.7,2.61,.73,.55,1.56,1,2.39,1.4,11.93,5.8,22.18,14.19,33.09,21.55,1.17,.79,2.62,1.55,2.92,3.29-2.46,1.07-4.31,.87-5.77-1.76-1.18-2.13-3.16-3.66-5.34-4.84-9.84-5.33-19.25-11.46-29.44-16.15Z"/><path class="cls-37" d="M1866.61,640.96c1.49,.98,.8,1.98,.17,3.16-3.91,7.37-8.34,14.31-13.73,20.76-3.95,4.72-8.98,8.41-12.37,13.6v3.76c-.73-1.89-1.95-.16-2.74-.79-.77,1.25-.89,3.65-3.35,1.89-1.33,2.71-5.35,2.64-6.23,5.92-.03,.11-1.76,.34-2.7,.58-1.82,.47-3.04,1.5-3.93,3.06-1.74-1.17-1.82,1.95-3.56,1.34-.94-.33-.58,2.8-2.55,1.45,.5,2.55-2.12,.7-2.51,1.74-.98,2.67-3.19,2.3-5.27,2.33-.22,0-.6,.03-.62,.13-.74,2.79-4.6,1.69-5.51,4.38-.08,.25-1.58-.32-1.87,.84-3.56-1.8-.65,2.58-2.78,2.22-.73-.06,.32-1.33-.52-1.77-.56,1.54-1.09,3.06-3.14,1.28-.4-.34-1.77-.34-1.91-.09-1.15,2.2-4.17,.84-5.32,2.9-.09,.16-.39,.21-.59,.31-1.02-2.28-2.02,.56-3.06,0-2.59-1.38-4.33,1.2-6.59,1.48-.77,.1-1.45,3.2-2.13-.14-.12-.6-.44,.03-.52,.29-.11,.32-.12,.93-.25,.95-2.16,.34-2.07-3.08-4.34-2.63,.28-1.43-1.29-2.94,.02-4.25,1.22-1.21,2.64-2.33,4.47-.88l.12,.2c-.58,.89-1.5,1.06-2.51,1.02-.4,.2,.44,.53,.13,.18,1.19-.75,2.61,.13,3.82-.54,2.51-.35,5.07-.48,7.51-1.09,22.8-5.69,42.49-17.32,60.28-32.3,10.26-8.64,18.44-19.04,24.09-31.3Z"/><path class="cls-37" d="M1966.4,606.86c-1.65-4.7-5.83-3.46-9.14-3.61-9-.41-17.9,1.42-26.9,1.64-3.16,.08-6.77,.38-9.78,2.23-.55,.34-1.31,.41-1.99,.43-5.35,.18-10.22,2.29-15.31,3.54-7.05,1.74-13.66,4.7-20,7.74-4.64,2.23-11.38,4.16-11.71,11.54-.03,.69-.38,.77-.77,.27-.2-.25-.19-.65-.28-.99-.15-5.89,2.58-9.57,7.85-12.44,16.34-8.92,33.82-13.97,52.11-16.59,10.3-1.48,20.66-2.37,31.08-2.21,2.17,.14,4.56-1.31,6.45,.88-.53,2.53-1.07,5.05-1.6,7.58Z"/><path class="cls-2" d="M1810.74,786.25c-.42,2.14-.94,4.27-1.22,6.43-.41,3.19,1.05,4.58,4.25,4.78,3.58,.22,6.3-2.08,9.52-2.87-.96,13.15-2.25,26.29-2.07,39.5,.25,18.53,.83,37.05,6.15,54.99,5.84,19.71,12.11,39.3,17.85,59.05,3.25,11.18,3.28,19.54-.26,30.78-1.32-3.33-.47-3.87,.24-6.94,.9-3.91,.92-7.7,.41-11.42-.65-4.67-.46-9.57-2.5-13.97-2.14-4.61-2.74-9.75-4.56-14.32-2.46-6.17-2.89-12.89-5.84-18.78-2.15-4.29-1.63-9.26-3.81-13.42-2.16-4.13-3.35-8.65-4.23-13.04-.66-3.3-1.51-6.66-2.05-10.03-.67-4.16-1.37-8.29-1.52-12.5,0-.12-.38-.23-.58-.34-.12-16.24-.27-32.48-.33-48.71-.01-2.91,.45-5.82,.51-8.73,.09-4.15-.6-4.73-4.6-4.85-2.56-.08-5.22-.16-6.49-3.21-.17,.81-.32,1.56-.47,2.3,.05-4.78-2.15-9.52,0-14.32,.62-1.39,.85-1.18,1.61-.36Z"/><path class="cls-37" d="M1676.55,706.93c3.41-.54,5.61,.99,7.24,3.9,2.19,3.92,5.75,6.71,9.26,9.22,3.36,2.41,7.47,1.45,11.29,.27,10.42-3.22,19.48-8.91,28.14-15.35,.37-.27,.77-.51,1.15-.76,.78-.57,.95-2.6,2.38-1.47,.9,.7,.56,2.19-.28,3.1-1.82,1.93-2.98,4.4-5.86,5.44-2.01,.73-.88,3.2-.81,5.09-1.64-.57-.52-1.91-1.49-2.55-.15,.8-.28,1.52-.63,3.38-.38-4.92-2.03-3.8-3.41-1.81-1.64,2.37-5.45,2.47-5.96,5.91-.9-.9-1.44-.38-1.9,.48-3.43-3.15-2.73,1.68-4.25,2.27-.5,.19-.71,1.11-1.08,1.73-.84-.49-.04-1.49-.67-2.08-.85,.46-.08,1.45-.63,2.01-.46,.07-.4-.32-.47-.58-.22-.82-.76-2.52-1.43-1.45-1.94,3.11-4.74,1.18-7.01,1.59-1.77,.32-3.54,1.39-5.47,.87-.06-.02-.22,.36-.33,.56,.08-2.96-3.2-1.83-4.18-3.45-.39-.65-.85-.56-1.43-.57-4.89-.08-9.37,1.29-13.53,3.79l-.74,.79c-1.7-1.68-2.22-3.91-3.02-6.06,2.27-.35,4.45-.48,6.53-1.04,3.25-.87,3.88-2.57,2.52-5.67-1.04-2.37-2.77-4.22-4.38-6.17-.65-.78-1.03-1.35,.45-1.39Z"/><path class="cls-7" d="M1591.06,508.82c1.48,4.49,4.86,8.08,6.08,12.7,.87,3.29,2.11,6.55,2.47,9.9,.53,4.92,1.96,9.82,1.46,14.78-.44,4.35-.39,8.7-1.11,13.09-1.55,9.49-5.35,17.86-10.37,25.81-1.4,2.22-2.88,4.48-5.39,5.75-.46,.23-.83,.86-1,1.38-.59,1.86-.87,3.92-3.72,3.23-.32-.08-1.15,.63-1.21,1.06-.52,3.25-3.22,2.76-5.28,2.98-4.45,.47-6.34,3.2-4.5,7.14,4.43,9.45,9.28,18.73,13.33,28.34,2.04,4.84,5.76,5.01,9.74,5.57,.71,.1,1.78-.19,1.54,1.18-2.75-.31-5.5-.64-8.26-.91-1.16-.11-1.86-.66-2.41-1.67-7.41-13.6-14.03-27.55-18.74-42.34-.06-.2,.01-.45,.02-.65,20.11-1.05,27.66-15.4,32.65-31.69,4.21-13.77,3.54-27.83-.52-41.68-1.18-4.03-3.3-7.59-5.51-11.11-.69-1.2-.26-2.11,.74-2.88Z"/><path class="cls-38" d="M1591.06,508.82c-.25,.96-.49,1.92-.74,2.88-2.76-2.83-5.65-5.49-9.65-6.41-1.58-.36-1.42-1.03-.79-2.17,9.24-16.62,14.57-34.9,22.01-52.28,3.5-8.19,8.06-15.94,13.22-23.11,5.28-7.33,10.1-15.13,16.87-21.4-1.02-.71-1.63,.61-2.5,.43-1.82-1.77-4.24-2.84-5.75-4.96,0-.76,0-1.52,0-2.29,1.41,1.75,2.22,3.83,4.64,4.06,1.65,.16,3.22,1.63,5.02,.16,.46-.38,2.09-.24,2.17,0,.36,1.11-.58,2.28-.07,3.48-2.62-.1-1.4,2.88-3.12,3.81-2.03,1.09-.29,3.62-1.56,5.37-.07-1.14-.13-2.29-.2-3.43l-.4-.03c-.11,1.13-.23,2.27-.35,3.46-.86-1.91-2.27-.46-2.62-.07-2.04,2.32-4.08,4.7-5.67,7.34-2.15,3.56-5.04,6.53-7.21,10.16-3.76,6.28-7.4,12.61-10.94,19.01-2.6,4.69-3.12,10.16-5.69,14.89-1.31,2.42-1.85,5.25-2.86,7.85-3.36,8.71-6.84,17.36-11.39,25.54-.91,1.64-.73,1.69,1.51,2.79,1.38,.68,1.11,2.45,2.13,3.47,1.14,1.14,2.77,.61,3.94,1.46Z"/><path class="cls-7" d="M1931.76,319.01c-.75,3.2-1.39-.05-1.42-.14-2.9-7.81-7.34-14.78-12.22-21.41-5.28-7.19-11.43-13.77-18.94-18.64-3.03-1.97-7.44-3.39-10.94-1.53-3.19,1.7-5.34,5.16-6.11,8.94-.3,1.46-1.18,2.57-1.64,3.91-.16,.48-.74-.11-.96-.52,2.07-7.7,5.3-14.99,8.06-22.45,.82-2.22,1.84-.92,2.79-.33,8.97,5.55,16.38,12.82,22.94,20.98,7.63,9.5,14.11,19.71,18.44,31.17Z"/><path class="cls-7" d="M1491.63,1014.84c0-.17,0-.34-.01-.52,1-1.75,4.39-2.98,6.54-2,1.86,.85,3.73,2.15,3.29,4.65-.39,2.23-.8,4.51-2.13,6.46-2.33,1.81-4.66,3.61-6.99,5.42-8.77,1.36-17.55,2.68-26.57,2.74,2.59-2.4,5.36-4.45,8.49-5.97,6.46-3.14,13.34-5.09,20.21-7.06,.78-.22,1.57-.41,2.32-.71,.98-.38,2.1-.94,1.8-2.14-.26-1.07-1.37-1.55-2.49-1.46-1.49,.12-2.96,.38-4.44,.59Z"/><path class="cls-7" d="M1876.17,1054.28c.74-.95,2.03-.15,2.85-.87-6.35-4.6-13.3-8.1-20.31-11.48-4.1-1.97-7.27-5.08-10.33-8.32-.52-.55-.11-1.06,.03-1.58,10.03,4.96,20.06,9.92,30.09,14.88,2.93,1.45,5.51,3.37,7.74,5.77,1.78,1.91,.86,2.89-1.22,3.03-3.03,.21-5.92-.77-8.85-1.42Z"/><path class="cls-1" d="M1774.73,705.66c-1.41,.84-2.91,.75-5.07,.35l3.63-1.02c.48,.22,.96,.44,1.44,.67Z"/><path class="cls-17" d="M1888.02,882.25c-.38-1.12-.43-2.25,0-3.37,.17-.25,.35-.5,.52-.75,.04,1.4,.65,2.87-.51,4.12Z"/><path class="cls-4" d="M1887.24,1040.55l.71-.69c.91,.59,2.06,.98,2.07,2.86l-2.78-2.17Z"/><path class="cls-25" d="M1502.75,328.78c-1.01-5.49-2.2-10.96-2.96-16.48-.57-4.13-.58-8.34-.85-12.51-.23-3.53-.6-7.06-.69-10.59-.1-4.17,2.13-6.01,6.37-5.65,5.97,.5,11.46,2.66,16.83,5.06,8.94,3.99,17.98,7.84,26.61,12.45,9.07,4.85,18.37,9.31,27,14.99,3.57,2.35,7.41,4.3,11.13,6.44-.98,1.68-3.57,1.86-4.06,4.19-.09-.95-.17-1.89-.31-3.37-.9,1.97,.15,4.17-2.13,4.91-.97-.78-.04-2.01-.9-3.1-.58,1.58,.28,3.65-1.83,4.49-1.1-.7,0-2.17-.93-3.01-.67,1.45,.34,3.63-1.88,4.4-1.01-.77-.08-2-.92-3.1-.59,1.64,.3,3.9-2.18,4.57-.1-1.07-.2-2.06-.37-3.83-.84,2.21,.11,4.35-2.09,5.13-1.03-.74-.08-1.97-.88-3.04-.7,1.56,.32,3.89-2.21,4.47l-.37-3.39c-.95,1.79,.15,3.99-2.11,4.74-1.04-.72-.09-1.95-.77-2.9-.96,1.34,.3,3.79-2.3,4.33l-.39-3.33c-.95,1.73,.15,3.92-2.08,4.67-1.15-.69,.08-2.19-.95-3.02-.59,1.53,.34,3.69-1.89,4.45-.92-.84-.02-2.07-.88-3.12-.6,1.56,.32,3.68-1.83,4.47-1.19-.69,.09-2.21-.96-3-.65,1.47,.4,3.68-1.91,4.41-.9-.81-.06-2.02-.85-3.16-.64,1.63,.31,3.75-1.87,4.52-1.17-.67,.07-2.18-.92-3-.68,1.47,.38,3.67-1.91,4.42-.96-.78-.06-2.01-.88-3.12-.62,1.6,.33,3.71-1.83,4.47-1.17-.66,0-2.13-1.05-3.14l-.33,3.48-.81-1.91c-2.22,2.59,1.33,3.26,1.64,5-5.88-2.39-10.98-6.18-16.41-9.37-7.11-4.19-14.09-8.6-21.13-12.91Z"/><path d="M1662.71,537.82c1.57,.26,2.23,1.42,2.88,2.72,1.54,3.04,3.86,4.7,7.41,5.5,9.61,2.17,18.85-.61,28.22-1.41,5.41-.46,10.79-1.25,16.2-1.82,2.54-.27,4.57,.61,6.58,2.34,9.71,8.38,19.33,16.92,31.06,22.51,3.45,1.65,7.05,2.95,10.88,3.31,3.36,.32,6.72,.2,9.42-2.32,1.44-.95,2.89-1.15,3.91,.48,1.04,1.66-.15,2.84-1.25,3.9-1.47,1.41-3.29,2.35-5.26,2.48-2.91,.2-4.09,1.92-5.17,4.33-8.98,19.96-20.31,38.51-34.05,55.53-7.74,9.6-16.32,18.34-27.33,24.33-3.31,1.8-6.79,3.03-10.47,3.56-8.44,1.21-14.59-2.46-18.97-9.45-4.31-6.86-6.31-14.59-7.84-22.41-3.31-16.92-3.59-34.06-3.55-51.23,.02-8.53,.26-17.03,1.36-25.5,.4-3.07-.05-5.92-2.6-8.24-1.62-1.47-2.75-3.48-3.28-5.65-.35-1.42-.73-3.23,1.87-2.95Z"/><path d="M1808.07,515.81c9.07-3.82,17.84-4,26.08,2.17,7.06,4.72,11.86,10.59,11.77,19.77-.05,4.51,.29,8.91-1.26,13.28-5.96,16.86-27.64,21.77-40.84,9.68-10.15-9.3-11.45-24.86-6.16-34.6,2.36-4.35,5.96-7.86,10.41-10.3Z"/><path d="M1622.39,474.07c5.15-7.72,12.66-11.35,21.61-12.45,7.59-.94,14.01,1.5,19.38,6.86,5.45,3.72,6.61,9.55,7.06,15.44,1.22,16.11-10.66,27.87-24.21,30.33-11.99,2.18-29.11-6.59-28.84-23.9,.09-5.97,.42-11.75,5-16.28Z"/><path class="cls-7" d="M1662.71,537.82c-1.75,.6-2.07,1.73-1.12,3.22,1.06,1.65,1.89,3.65,3.37,4.77,2.53,1.91,2.76,4.21,2.49,6.97-2.13,21.49-2.01,42.98,.1,64.46,1.05,10.63,3.02,21.07,7.21,30.95,6.05,14.26,16.93,18.11,30.6,10.87,11.28-5.98,19.89-15.02,27.85-24.74,7.64-9.33,14.28-19.34,20.38-29.74,5.24-8.93,10.27-17.96,14.21-27.55,.61-1.49,1.4-2.14,3.07-2.11,2.26,.04,4.29-.91,6.12-2.18,.98-.68,2.55-1.25,2.13-2.76-.53-1.9-2.21-1.68-3.75-1.36-.66-.45-2.03-1-.25-1.56,1.98-.62,3.98-.14,4.97,1.87,.89,1.82,.56,3.47-.83,5.28-1.67,2.17-5.32,3.04-4.7,7.24-1.26-4.78-2.81-2.02-4.11-.62-4.62,4.96-6.91,11.32-10.14,17.12-4.05,7.28-8.04,14.6-13.02,21.32-2.42,3.26-4.93,6.54-6.72,10.14-1.22,2.46-4.92,3.58-3.93,7.19-2.25-.85-2.59,1.42-3.42,2.39-4.53,5.34-9.47,10.23-14.78,14.8-1.6,1.37-1.65,3.73-1.53,5.9-3.95-1.92-6.01-.52-6.44,4.36-3.65-3.34-6.84-.24-9.04,1.54-2.39,1.92-4.59,.98-6.74,1.23-2.56,.29-5.5,1.2-7.86-.77-1.08-.9-3.57,.54-3.48-2.15-.97,.01-.09,1.28-1.12,1.4,.16-2.21-1.34-3.25-2.69-4.75-1.8-2-2.98-4.87-4.41-7.22-2.64-4.34-3.67-9.03-5.12-13.65-1.76-5.6-2.84-11.33-3.57-17.2-2.02-16.26-1.87-32.56-2.09-48.88-.07-5.09,1.71-10.1,.44-15.2-.33-1.32,.9-2.23,1.09-3.53,.55-3.74-2.12-5.97-3.75-8.59-1.77-2.85-3.73-5.22-2.05-9,.72-1.63,1.57-.44,2.24-.76,.98-.46,.67,.67,.39,1.29Z"/><path class="cls-7" d="M1808.07,515.81c-10.48,7.77-14.95,17.83-11.88,30.85,2.76,11.74,14.16,20.38,26.36,19.85,11.55-.5,21.47-9.38,22.65-21.47,.9-9.24-.06-18.4-8.61-24.63-.92-.67-1.63-1.62-2.43-2.43,.98-.14,.66-1.41,1.86-1.88-1.25,3.55,3.59,2.45,3.52,5.26,.9-.47,.11-1.49,.93-2.19l.41,2.94c1.02-.84,.07-2.04,.87-2.93,.17,.05,.5,.06,.72,.22,.27,.19,.65,.51,.66,.77,.09,7.71,5.56,14.27,4.28,22.44-.78,5.02-1.04,10.01-3.85,14.41-.62,.98-1.42,1.84-.92,3.15,.14,.36,.26,.81-.44,1.05-2.04,.7-3.36,2.31-4.43,4.22-.33,.59-2.31,.37-2.51,.91-.84,2.27-3.73,1.88-4.3,2.77-1.7,2.62-4.12,.25-5.48,1.43-2.1,1.83-4.17,0-6.24,.46-1.43,.31-3.07-.26-3.05,2.77-1.35-2.53-1.53-5.57-4.77-3.53-1.05-1.96-2.92-3.43-4.74-4.02-4.17-1.34-5.48-5.49-7.85-8.17-2.67-3.02-4.31-7.59-4.63-12.48-.34-5.31-.56-10.4,.92-15.51,.81-2.8,2.13-5.22,4.17-7.39,2.55-2.71,5.95-4.72,7.37-8.48,1.03,.03,.48,1.49,1.4,1.63Z"/><path class="cls-7" d="M1622.39,474.07c-3.88,6.48-5.69,13.39-3.88,20.89,3.79,15.81,21.33,23.4,35.97,15.58,16.37-8.74,20.24-29.38,8.9-42.06,.33-.71,.66-1.42,1.15-2.48,.17,1.08,.29,1.8,.41,2.58,1.05-.57-.03-1.86,.99-2.34,.17,.14,.5,.35,.48,.4-1.55,3.59,2.17,5.24,2.92,7.99,1.72,6.27,3.49,12.4,1.46,19.06-1.38,4.51-3.09,8.63-6.11,12.31-.91,1.11-.9,2.61-2.8,3.29-1.34,.48-1.89,3.33-3.2,3.7-1.81,.52-1.88,1.79-2.59,3l-.7-1.79c-.88,2.16-1.49,4.32-3.1,5.96-1.35-.43-.27-1.77-1.19-2.45l-.44,2.24q-10.46-3.51-12.54,2.07c-.4-5.66-5.43-4.68-7.65-7.43-.95-1.19-1.65-.25-1.79,.82-.14,1.02-.03,2.07-.03,3.44-.48-.42-.91-.69-.88-.79,1.33-3.73-1.17-5.59-3.47-7.76-2.82-2.67-4.76-6.15-6.06-9.7-2.93-7.99-2.51-15.96,.82-23.92,.81-1.93,1.15-3.05,3.33-2.61Z"/><path class="cls-39" d="M1720.77,532.32c-.92,.47-.79,1.58-1.44,2.36-.21-.26-.56-.48-.56-.7,.03-2.84-1.29-5.26-2.28-7.82-1.61-4.18,.38-7.28,4.82-7.13,3.39,.11,1.8-2.74,3.09-4.16l.28,3h.4c.11-.95,.22-1.91,.33-2.81,.64-.23,1.23,.12,1.21,.43-.21,4.39,3.94,5.75,5.97,8.57,.79,1.1,.7,2.13,.59,3.23-.19,2.02-3.87,5.53-6.07,5.64-1.57,.08-2.54,2.69-4.54,.97-.39-.34-1.24-.6-1.81-1.59Z"/><path class="cls-36" d="M1502.09,961.58c0-.26,0-.52,.02-.78,.94-.45,1.56-1.54,2.79-1.4-.7,1.03-1.45,2-2.81,2.18Z"/><path class="cls-12" d="M1636.22,973.31c-3.81,1.35-7.77,1.43-11.74,1.36,3.87-.87,7.76-1.5,11.74-1.36Z"/><path class="cls-5" d="M1623.74,974.7c-2.68,1.39-5.55,.41-8.32,.66,2.68-1.37,5.55-.35,8.32-.66Z"/><path class="cls-15" d="M1655.69,970.53c-1.21,1.24-2.76,.48-4.15,.7,1.21-1.26,2.76-.5,4.15-.7Z"/><path class="cls-9" d="M1651.57,971.22c-1.23,1.22-2.79,.5-4.19,.71,1.22-1.29,2.79-.48,4.19-.71Z"/><path class="cls-11" d="M1647.4,971.92c-1,1.11-2.31,.57-3.5,.68,.99-1.16,2.32-.51,3.5-.68Z"/><path class="cls-3" d="M1642.61,972.62c-1.03,1.08-2.36,.57-3.57,.66,1.02-1.14,2.37-.5,3.57-.66Z"/><path class="cls-27" d="M1499.31,1023.44c-.37-1.7,.62-3.1,1-4.64,1.08-4.31-.9-6.3-5.43-5.51-1.14,.2-2.59-.63-3.26,1.04-1.75-.49-1.19-.42-.96-2.12,.21-1.54,.98-3.2,.22-4.91-1.17-2.64,1.8-1.59,2.62-2.56,1.22-1.45,1.28,.72,1.87,1.31,3.2-5.27,8.91-3.96,13.42-4.22,4.09-.23,8.73,1.34,11.35,5.56,.08,1.97-1.83,2.4-2.77,3.59-6.01,4.17-11.7,8.81-18.06,12.47Z"/><path class="cls-18" d="M1500,979.6c-1.14-3.95-1.16-7.91-.02-11.87,0,3.96,.01,7.91,.02,11.87Z"/><path class="cls-6" d="M1517.37,1010.97c.92-1.2,1.84-2.39,2.77-3.59,.26,.01,.52,.02,.78,.04-.53,1.84-1.75,2.98-3.55,3.55Z"/><path class="cls-19" d="M1870.53,879.45c-1.01-1.27-.6-2.78-.7-4.2,1.35,1.1,.37,2.94,1.34,4.17-.2,.36-.42,.35-.65,.03Z"/><path class="cls-8" d="M1879.85,878.09c-.09-1.42-.18-2.83-.27-4.25,1.21,1.34,.89,2.79,.27,4.25Z"/><path class="cls-13" d="M1879.61,873.92c-.71-.56-.63-1.4-.76-2.17,.19-.33,.32-1.42,.73-.17,.23,.71,.03,1.55,.03,2.34Z"/><path class="cls-35" d="M1869.88,875.31c-.96-1.05-.61-2.35-.68-3.56,1.17,1.01,.5,2.37,.68,3.56Z"/><path class="cls-23" d="M1870.53,879.45c.22-.01,.43-.02,.65-.03,.03,1.21,.06,2.43,.09,3.64-.98-1.06-.64-2.38-.73-3.61Z"/><path class="cls-32" d="M1881.13,886.37c-.02-1.14-.04-2.28-.07-3.42,.9,1.12,1.01,2.26,.07,3.42Z"/><path class="cls-27" d="M1817.04,417.04v-3.13c1.02,1.4,.85,2.29,0,3.13h0Z"/><path class="cls-27" d="M1592.45,330.13c-.92-.79-.83-1.74-.41-2.87,.75,.97,.26,1.97,.41,2.87h0Z"/><path class="cls-34" d="M1745.37,610.35c-9.04,14.91-19.54,28.61-33.2,39.65-4.24,3.43-8.87,6.26-14.22,7.69-7.06,1.88-12.02,.1-16.22-5.97-3.87-5.6-5.95-11.96-7.43-18.54-3.39-15.05-4.93-30.29-4.6-45.72,5.03-3.9,10.06-7.78,16.6-8.87,2.17-.36,4.34-.75,6.48-1.28,11.64-2.92,22.01,.59,31.73,6.56,8.95,5.49,14.92,13.73,19.77,22.86,.61,1.14,.93,2.35,1.09,3.62Z"/><path class="cls-22" d="M1745.37,610.35c-3.24-5.57-6.23-11.3-10.49-16.2-8.88-10.23-20.05-16.1-33.57-17.05-4.71-.33-9.26,1.68-13.95,2.12-5.71,.54-9.85,4.22-14.58,6.74-1.01,.54-2.05,1-3.08,1.5-.02-4.4,0-8.79-.08-13.19-.03-1.72,.7-2.7,2.17-3.56,23.75-13.95,57.63-6.96,73.92,15.3,7.11,9.71,7.04,14.26-.34,24.33Z"/><path class="cls-16" d="M1754.79,593.81c-10.32-26.53-49.07-44.85-84.41-27.54,.48-5.19,.91-10.16,1.4-15.13,.13-1.38,1.07-1.22,2.06-.96,9.75,2.52,19.23-.23,28.77-1.51,3.31-.44,6.64-.85,9.88-1.62,6.6-1.58,10.81,2.19,15.13,6.17,9.25,8.53,19.5,15.58,31.36,20.01,5.13,1.92,5.18,1.76,2.69,6.77-2.22,4.44-4.43,8.88-6.88,13.81Z"/><path class="cls-40" d="M1818.74,537.68c-5.88-.06-10.43-4.35-10.37-9.78,.06-5.74,4.59-10.03,10.59-10.03,5.01,0,9.5,4.52,9.47,9.54-.04,6.1-4.03,10.32-9.68,10.27Z"/><path class="cls-40" d="M1652.64,489c-6.01,.01-10.25-4.21-10.23-10.19,.01-5.6,4.42-9.9,10.21-9.96,5.58-.06,10.12,4.49,10.07,10.1-.05,5.78-4.31,10.05-10.04,10.06Z"/><path class="cls-10" d="M1724.26,529.11c-2.88,.45-4.93-1.3-6.44-3.81-.65-1.09-.79-2.38,.21-3.55,.92-1.08,1.75-2.08,3.44-1.64,2.64,.68,5.5,.41,7.81,2.4,3.23,2.78,3,4.39-.95,6.02-1.24,.51-2.46,.53-4.07,.57Z"/></g></svg>