<?xml version="1.0" encoding="UTF-8"?><svg id="Layer_2" xmlns="http://www.w3.org/2000/svg" viewBox="0 0 49.13 19.32"><defs><style>.cls-1{fill:#eaeaea;}</style></defs><g id="Layer_1-2"><g><path class="cls-1" d="M16.19,0c-.24,.4-.47,.81-.71,1.21-.63,1.06-1.26,2.11-1.88,3.17-.04,.06-.07,.08-.14,.08-1.97,0-3.94,0-5.91,0-1.01,0-1.77,.44-2.27,1.31-.95,1.65-1.89,3.29-2.84,4.94-.02,.03-.04,.06-.06,.1-.02-.03-.04-.05-.05-.08-.71-1.24-1.43-2.48-2.13-3.72-.09-.15-.13-.34-.19-.5,0-.1,0-.2,0-.3,.05-.16,.09-.32,.17-.47,.53-.93,1.06-1.85,1.59-2.78,.44-.77,.89-1.54,1.33-2.31,.16-.28,.39-.48,.7-.59C3.87,.04,3.95,.02,4.03,0c4.06,0,8.11,0,12.17,0Z"/><path class="cls-1" d="M18.96,19.32c-.17-.02-.34-.03-.51-.07-1.21-.28-1.99-1.04-2.31-2.23-.26-.97-.1-1.89,.51-2.71,.5-.66,1.15-1.09,1.98-1.19,1.01-.12,1.91,.12,2.61,.9,.2,.21,.35,.46,.47,.74-.21,0-.41,0-.62,0-.12,0-.26,.03-.36,0-.1-.04-.17-.16-.25-.24-.43-.42-.95-.57-1.54-.55-1.11,.05-1.87,.94-1.99,1.87-.11,.79,.08,1.51,.7,2.05,.66,.59,1.43,.71,2.26,.39,.28-.11,.51-.29,.69-.53,.04-.05,.08-.06,.13-.06,.32,0,.64,0,.97,0-.02,.04-.03,.06-.04,.09-.48,.88-1.21,1.39-2.21,1.51-.1,.01-.21,.02-.31,.03h-.2Z"/><path class="cls-1" d="M25.76,19.32c-.16-.03-.32-.05-.48-.1-.85-.28-1.35-.88-1.57-1.73-.3-1.18,.36-2.41,1.5-2.83,.85-.31,1.97-.08,2.65,.89,.88,1.26,.32,3.1-1.12,3.64-.16,.06-.33,.08-.5,.12-.02,0-.04,.01-.06,.02h-.43Zm1.69-2.44c-.01-.09-.02-.23-.05-.36-.13-.55-.46-.95-1.01-1.11-.55-.16-1.06-.04-1.46,.38-.42,.43-.52,.96-.4,1.53,.2,.99,1.28,1.5,2.14,1.02,.55-.31,.76-.81,.79-1.46Z"/><path class="cls-1" d="M49.13,12.4h-.8V6.42h.8v5.98Z"/><path class="cls-1" d="M12.35,19.2h-.11c-1.41,0-2.83,0-4.24,0-.52,0-.91-.22-1.17-.68-.97-1.69-1.94-3.38-2.91-5.07-.26-.44-.25-.89,0-1.33,.86-1.48,1.73-2.96,2.59-4.44,.41-.7,1.02-1.12,1.82-1.25,.1-.02,.2-.02,.3-.02,1.22,0,2.44,0,3.66,0h.07s-.03,.06-.05,.09c-1.2,2.07-2.4,4.14-3.61,6.21-.04,.07-.04,.11,0,.18,.97,1.68,1.93,3.36,2.9,5.04,.23,.39,.46,.79,.69,1.18,.02,.03,.03,.06,.05,.1Z"/><path class="cls-1" d="M36.94,15.22v-2h.81v5.98h-.81v-.54s-.04,.03-.05,.04c-.64,.61-1.39,.74-2.2,.48-.94-.3-1.46-.98-1.58-1.95-.09-.69,.08-1.32,.53-1.87,.83-1.03,2.42-1.05,3.26-.2,.01,.01,.03,.03,.06,.06Zm-3.03,1.72s0,.11,.01,.18c.01,.09,.03,.17,.05,.25,.21,.79,1.02,1.29,1.79,1.12,.87-.2,1.4-1.11,1.15-1.97-.19-.66-.77-1.15-1.41-1.16-.88-.02-1.59,.67-1.59,1.59Z"/><path class="cls-1" d="M30.57,8.4v-.52h.82v4.51h-.81v-.53s-.04,.02-.05,.03c-1.04,1.08-3.04,.68-3.64-.83-.42-1.07-.08-2.29,.83-2.93,.46-.32,.98-.42,1.53-.37,.49,.04,.91,.25,1.27,.6,.01,.01,.02,.02,.03,.03h.02Zm.05,1.76c-.02-.15-.04-.3-.07-.44-.24-.91-1.18-1.4-2.03-1.06-.77,.3-1.15,1.16-.89,1.97,.22,.69,.89,1.17,1.65,1.07,.75-.1,1.33-.79,1.35-1.55Z"/><path class="cls-1" d="M46.77,8.42v-.53h.81v4.51h-.81v-.54s-.03,.02-.04,.03c-.66,.63-1.43,.76-2.27,.48-.86-.29-1.36-.91-1.51-1.8-.13-.76,.04-1.44,.54-2.04,.83-.99,2.42-1.01,3.23-.15,0,0,.02,.02,.05,.04Zm-3.04,1.7c.03,.17,.05,.35,.1,.51,.23,.77,1.03,1.24,1.78,1.06,.86-.21,1.39-1.1,1.15-1.96-.19-.67-.78-1.16-1.43-1.17-.87-.02-1.58,.68-1.6,1.56Z"/><path class="cls-1" d="M20.15,6.42v.79h-2.98v1.78h2.98v.79h-2.98v2.61h-.85V6.42h3.84Z"/><path class="cls-1" d="M26.21,12.4h-.82s0-.07,0-.1c0-.82,0-1.64,0-2.46,0-.18-.04-.37-.09-.55-.13-.43-.43-.67-.88-.69-.13,0-.26,0-.39,.02-.36,.06-.59,.28-.71,.62-.12,.34-.15,.69-.15,1.04,0,.67,0,1.34,0,2.01,0,.03,0,.07,0,.11h-.81V7.88h.77v.49s.04-.03,.06-.05c.36-.41,.82-.56,1.35-.52,.38,.02,.74,.12,1.04,.37,.34,.28,.51,.65,.58,1.07,.03,.2,.05,.4,.05,.6,0,.82,0,1.65,0,2.47v.09Z"/><path class="cls-1" d="M32.52,19.19h-.76v-.49s-.04,.02-.04,.03c-.44,.54-1.02,.65-1.66,.51-.63-.14-1.02-.54-1.19-1.16-.06-.23-.1-.48-.11-.72-.01-.87,0-1.75,0-2.62,0-.02,0-.04,0-.07h.81s0,.08,0,.11c0,.83,0,1.65,.01,2.48,0,.19,.04,.39,.1,.57,.17,.54,.58,.73,1.1,.65,.49-.07,.83-.44,.9-.95,.03-.23,.04-.47,.04-.7,0-.68,0-1.36,0-2.04v-.11h.8v4.51Z"/><path class="cls-1" d="M35.98,12.4h-.81v-.11c0-.77,0-1.54,0-2.32,0-.23-.03-.46-.09-.68-.12-.44-.42-.67-.87-.7-.14,0-.28,0-.41,.02-.35,.06-.57,.27-.7,.6-.12,.32-.16,.65-.16,.98,0,.7,0,1.39,0,2.09,0,.04,0,.07,0,.11h-.81V7.88h.77v.5s.04-.04,.06-.05c.36-.41,.82-.56,1.36-.52,.25,.02,.48,.06,.71,.16,.49,.22,.77,.62,.88,1.14,.05,.24,.08,.48,.08,.73,0,.83,0,1.66,0,2.49,0,.02,0,.05,0,.08Z"/><path class="cls-1" d="M40.98,9.38c-.29,0-.57,0-.85,0-.02,0-.06-.04-.07-.06-.21-.37-.5-.62-.92-.72-.87-.2-1.68,.37-1.81,1.26-.07,.48,.02,.93,.33,1.32,.65,.82,1.89,.7,2.39-.22,.04-.07,.08-.09,.16-.09,.26,0,.51,0,.78,0-.09,.26-.2,.5-.36,.72-.48,.69-1.15,.96-1.96,.93-1.25-.05-2.01-1.06-2.16-1.99-.18-1.1,.44-2.23,1.47-2.63,1.08-.42,2.51-.05,3,1.48Z"/><path class="cls-1" d="M23.15,13.22v5.97h-.8v-5.97h.8Z"/><path class="cls-1" d="M20.81,12.39V7.88h.79v4.51h-.79Z"/><path class="cls-1" d="M42.38,12.4h-.79V7.88h.79v4.51Z"/><path class="cls-1" d="M20.75,6.82c0-.25,.2-.46,.45-.46,.25,0,.46,.21,.46,.46,0,.25-.21,.46-.46,.46-.25,0-.45-.21-.45-.46Z"/><path class="cls-1" d="M42.44,6.82c0,.25-.2,.46-.45,.46-.25,0-.46-.21-.46-.46,0-.25,.21-.46,.46-.46,.25,0,.45,.21,.45,.46Z"/></g></g></svg>